{
.appVersion = "895";
DisplayStrings = (
"scozy mugglebe"
);
copyright = "Copyright 2016 Jeremy Tribby. SIL OFL License v1.1.";
date = "2016-07-12 00:27:02 +0000";
designer = "Jeremy Tribby";
designerURL = "http://tribby.com/";
familyName = Barlow;
featurePrefixes = (
{
automatic = 1;
code = "languagesystem DFLT dflt;\012";
name = Languagesystems;
}
);
features = (
{
automatic = 1;
code = "sub hyphen hyphen by hyphen_hyphen.liga;\012";
name = liga;
}
);
fontMaster = (
{
alignmentZones = (
"{800, 16}",
"{700, 10}",
"{500, 6}",
"{0, -10}",
"{-200, -12}"
);
ascender = 800;
capHeight = 700;
customParameters = (
{
name = paramArea;
value = "666";
},
{
name = paramDepth;
value = "18";
},
{
name = paramOver;
value = "0";
}
);
descender = -200;
horizontalStems = (
23,
22
);
id = "262880E7-CFE1-4BDA-902E-E24798F3240A";
userData = {
GSCornerRadius = 8;
GSOffsetHorizontal = 11;
GSOffsetMakeStroke = 1;
GSOffsetVertical = 10;
noodleExtremesAndInflections = 1;
noodleRemoveOverlap = 1;
noodleThickness = "22.0";
};
verticalStems = (
22,
21
);
visible = 1;
weight = Light;
weightValue = 23;
xHeight = 500;
},
{
alignmentZones = (
"{800, 16}",
"{700, 11}",
"{500, 9}",
"{0, -11}",
"{-200, -10}"
);
ascender = 800;
capHeight = 700;
customParameters = (
{
name = paramArea;
value = "666";
},
{
name = paramDepth;
value = "8";
},
{
name = paramOver;
value = "0";
}
);
descender = -200;
horizontalStems = (
198,
208
);
id = "4F25946F-63AC-42D6-8D55-01CF6A99025B";
userData = {
GSCornerRadius = 12;
GSOffsetHorizontal = 104;
GSOffsetMakeStroke = 1;
GSOffsetVertical = 102;
noodleExtremesAndInflections = 1;
noodleRemoveOverlap = 1;
noodleThickness = "50.0";
};
verticalStems = (
202,
168
);
visible = 1;
weight = Bold;
weightValue = 202;
xHeight = 500;
}
);
glyphs = (
{
color = 1;
glyphname = A;
lastChange = "2016-10-17 07:01:06 +0000";
layers = (
{
layerId = "262880E7-CFE1-4BDA-902E-E24798F3240A";
paths = (
{
closed = 1;
nodes = (
"124 0 LINE",
"278 656 LINE",
"432 0 LINE",
"454 0 LINE",
"289 700 LINE",
"267 700 LINE",
"102 0 LINE"
);
},
{
closed = 1;
nodes = (
"401 145 LINE",
"401 166 LINE",
"154 166 LINE",
"154 145 LINE"
);
}
);
width = 556;
},
{
layerId = "4F25946F-63AC-42D6-8D55-01CF6A99025B";
paths = (
{
closed = 1;
nodes = (
"227 0 LINE",
"322 450 LINE",
"417 0 LINE",
"640 0 LINE",
"438 700 LINE",
"206 700 LINE",
"4 0 LINE"
);
},
{
closed = 1;
nodes = (
"472 75 LINE",
"472 210 LINE",
"172 210 LINE",
"172 75 LINE"
);
}
);
width = 644;
},
{
associatedMasterId = "262880E7-CFE1-4BDA-902E-E24798F3240A";
layerId = "09B97E43-C149-48A2-81D6-63259EF6020F";
name = "DemiBold{119,100}";
paths = (
{
closed = 1;
nodes = (
"153 0 LINE",
"254 527 LINE",
"355 0 LINE",
"486 0 LINE",
"321 700 LINE",
"187 700 LINE",
"22 0 LINE"
);
},
{
closed = 1;
nodes = (
"391 101 LINE",
"391 212 LINE",
"116 212 LINE",
"116 101 LINE"
);
}
);
width = 508;
}
);
unicode = 0041;
},
{
color = 1;
glyphname = B;
lastChange = "2016-10-17 05:23:46 +0000";
layers = (
{
layerId = "262880E7-CFE1-4BDA-902E-E24798F3240A";
paths = (
{
closed = 1;
nodes = (
"313 351 LINE SMOOTH",
"428 351 OFFCURVE",
"499 415 OFFCURVE",
"499 523 CURVE SMOOTH",
"499 631 OFFCURVE",
"428 700 OFFCURVE",
"313 700 CURVE SMOOTH",
"167 700 LINE",
"167 351 LINE"
);
},
{
closed = 1;
nodes = (
"313 0 LINE SMOOTH",
"428 0 OFFCURVE",
"499 71 OFFCURVE",
"499 186 CURVE SMOOTH",
"499 301 OFFCURVE",
"428 372 OFFCURVE",
"313 372 CURVE SMOOTH",
"167 372 LINE",
"167 0 LINE"
);
},
{
closed = 1;
nodes = (
"189 351 LINE",
"313 351 LINE SMOOTH",
"415 351 OFFCURVE",
"477 288 OFFCURVE",
"477 186 CURVE SMOOTH",
"477 84 OFFCURVE",
"415 22 OFFCURVE",
"313 22 CURVE SMOOTH",
"189 22 LINE"
);
},
{
closed = 1;
nodes = (
"189 679 LINE",
"313 679 LINE SMOOTH",
"415 679 OFFCURVE",
"477 618 OFFCURVE",
"477 523 CURVE SMOOTH",
"477 428 OFFCURVE",
"415 372 OFFCURVE",
"313 372 CURVE SMOOTH",
"189 372 LINE"
);
}
);
width = 636;
},
{
layerId = "4F25946F-63AC-42D6-8D55-01CF6A99025B";
paths = (
{
closed = 1;
nodes = (
"306 308 LINE SMOOTH",
"452 308 OFFCURVE",
"550 386 OFFCURVE",
"550 502 CURVE SMOOTH",
"550 621 OFFCURVE",
"450 700 OFFCURVE",
"301 700 CURVE SMOOTH",
"53 700 LINE",
"53 308 LINE"
);
},
{
closed = 1;
nodes = (
"330 0 LINE SMOOTH",
"475 0 OFFCURVE",
"571 82 OFFCURVE",
"571 205 CURVE SMOOTH",
"571 338 OFFCURVE",
"465 426 OFFCURVE",
"305 426 CURVE",
"53 426 LINE",
"53 0 LINE"
);
},
{
closed = 1;
nodes = (
"246 286 LINE",
"311 286 LINE SMOOTH",
"342 286 OFFCURVE",
"362 266 OFFCURVE",
"362 235 CURVE SMOOTH",
"362 203 OFFCURVE",
"341 182 OFFCURVE",
"310 182 CURVE SMOOTH",
"246 182 LINE"
);
},
{
closed = 1;
nodes = (
"246 536 LINE",
"305 536 LINE",
"334 536 OFFCURVE",
"354 517 OFFCURVE",
"354 489 CURVE SMOOTH",
"354 462 OFFCURVE",
"334 444 OFFCURVE",
"305 444 CURVE",
"246 444 LINE"
);
}
);
width = 590;
}
);
unicode = 0042;
},
{
color = 1;
glyphname = C;
lastChange = "2016-10-17 05:23:46 +0000";
layers = (
{
layerId = "262880E7-CFE1-4BDA-902E-E24798F3240A";
paths = (
{
closed = 1;
nodes = (
"417 -9 OFFCURVE",
"479 50 OFFCURVE",
"479 150 CURVE SMOOTH",
"479 152 LINE",
"457 152 LINE",
"457 150 LINE SMOOTH",
"457 64 OFFCURVE",
"405 11 OFFCURVE",
"318 11 CURVE SMOOTH",
"231 11 OFFCURVE",
"179 64 OFFCURVE",
"179 150 CURVE SMOOTH",
"179 550 LINE SMOOTH",
"179 637 OFFCURVE",
"233 690 OFFCURVE",
"318 690 CURVE SMOOTH",
"403 690 OFFCURVE",
"457 637 OFFCURVE",
"457 550 CURVE SMOOTH",
"457 548 LINE",
"479 548 LINE",
"479 550 LINE SMOOTH",
"479 650 OFFCURVE",
"417 709 OFFCURVE",
"318 709 CURVE SMOOTH",
"219 709 OFFCURVE",
"157 650 OFFCURVE",
"157 550 CURVE SMOOTH",
"157 150 LINE SMOOTH",
"157 50 OFFCURVE",
"219 -9 OFFCURVE",
"318 -9 CURVE SMOOTH"
);
}
);
width = 592;
},
{
layerId = "4F25946F-63AC-42D6-8D55-01CF6A99025B";
paths = (
{
closed = 1;
nodes = (
"447 -10 OFFCURVE",
"549 67 OFFCURVE",
"549 183 CURVE SMOOTH",
"549 278 LINE",
"337 278 LINE",
"337 223 LINE SMOOTH",
"337 196 OFFCURVE",
"319 178 OFFCURVE",
"293 178 CURVE SMOOTH",
"267 178 OFFCURVE",
"249 196 OFFCURVE",
"249 223 CURVE SMOOTH",
"249 477 LINE SMOOTH",
"249 504 OFFCURVE",
"267 522 OFFCURVE",
"293 522 CURVE SMOOTH",
"319 522 OFFCURVE",
"337 504 OFFCURVE",
"337 477 CURVE SMOOTH",
"337 422 LINE",
"549 422 LINE",
"549 517 LINE SMOOTH",
"549 633 OFFCURVE",
"447 710 OFFCURVE",
"293 710 CURVE SMOOTH",
"139 710 OFFCURVE",
"37 633 OFFCURVE",
"37 517 CURVE SMOOTH",
"37 183 LINE SMOOTH",
"37 67 OFFCURVE",
"139 -10 OFFCURVE",
"293 -10 CURVE SMOOTH"
);
}
);
width = 576;
}
);
unicode = 0043;
},
{
color = 1;
glyphname = D;
lastChange = "2016-10-17 05:43:27 +0000";
layers = (
{
layerId = "262880E7-CFE1-4BDA-902E-E24798F3240A";
paths = (
{
closed = 1;
nodes = (
"328 0 LINE SMOOTH",
"428 0 OFFCURVE",
"489 61 OFFCURVE",
"489 161 CURVE SMOOTH",
"489 539 LINE SMOOTH",
"489 639 OFFCURVE",
"428 700 OFFCURVE",
"328 700 CURVE SMOOTH",
"167 700 LINE",
"167 0 LINE"
);
},
{
closed = 1;
nodes = (
"189 679 LINE",
"328 679 LINE SMOOTH",
"414 679 OFFCURVE",
"467 626 OFFCURVE",
"467 539 CURVE SMOOTH",
"467 161 LINE SMOOTH",
"467 75 OFFCURVE",
"414 22 OFFCURVE",
"328 22 CURVE SMOOTH",
"189 22 LINE"
);
}
);
width = 643;
},
{
layerId = "4F25946F-63AC-42D6-8D55-01CF6A99025B";
paths = (
{
closed = 1;
nodes = (
"340 0 LINE SMOOTH",
"471 0 OFFCURVE",
"552 73 OFFCURVE",
"552 193 CURVE SMOOTH",
"552 507 LINE SMOOTH",
"552 627 OFFCURVE",
"471 700 OFFCURVE",
"340 700 CURVE SMOOTH",
"53 700 LINE",
"53 0 LINE"
);
},
{
closed = 1;
nodes = (
"261 526 LINE",
"296 526 LINE SMOOTH",
"323 526 OFFCURVE",
"340 509 OFFCURVE",
"340 481 CURVE SMOOTH",
"340 219 LINE SMOOTH",
"340 191 OFFCURVE",
"323 174 OFFCURVE",
"296 174 CURVE SMOOTH",
"261 174 LINE"
);
}
);
width = 589;
},
{
associatedMasterId = "262880E7-CFE1-4BDA-902E-E24798F3240A";
layerId = "5FA87B53-3B99-492D-B797-6707203108CA";
name = "DemiBold{119,100}";
paths = (
{
closed = 1;
nodes = (
"324 0 LINE SMOOTH",
"441 0 OFFCURVE",
"513 67 OFFCURVE",
"513 178 CURVE SMOOTH",
"513 522 LINE SMOOTH",
"513 633 OFFCURVE",
"441 700 OFFCURVE",
"324 700 CURVE SMOOTH",
"106 700 LINE",
"106 0 LINE"
);
},
{
closed = 1;
nodes = (
"228 597 LINE",
"301 597 LINE SMOOTH",
"355 597 OFFCURVE",
"389 563 OFFCURVE",
"389 508 CURVE SMOOTH",
"389 192 LINE SMOOTH",
"389 137 OFFCURVE",
"355 104 OFFCURVE",
"301 104 CURVE SMOOTH",
"228 104 LINE"
);
}
);
width = 604;
}
);
unicode = 0044;
},
{
color = 1;
glyphname = E;
lastChange = "2016-10-17 05:43:57 +0000";
layers = (
{
layerId = "262880E7-CFE1-4BDA-902E-E24798F3240A";
paths = (
{
closed = 1;
nodes = (
"488 0 LINE",
"488 22 LINE",
"189 22 LINE",
"189 679 LINE",
"488 679 LINE",
"488 700 LINE",
"167 700 LINE",
"167 0 LINE"
);
},
{
closed = 1;
nodes = (
"383 340 LINE",
"383 361 LINE",
"178 361 LINE",
"178 340 LINE"
);
}
);
width = 578;
},
{
layerId = "4F25946F-63AC-42D6-8D55-01CF6A99025B";
paths = (
{
closed = 1;
nodes = (
"515 0 LINE",
"515 188 LINE",
"261 188 LINE",
"261 512 LINE",
"515 512 LINE",
"515 700 LINE",
"53 700 LINE",
"53 0 LINE"
);
},
{
closed = 1;
nodes = (
"405 266 LINE",
"405 434 LINE",
"175 434 LINE",
"175 266 LINE"
);
}
);
width = 543;
},
{
associatedMasterId = "262880E7-CFE1-4BDA-902E-E24798F3240A";
layerId = "DE3E8A9A-5DAD-493A-9E98-F56387BAB1C1";
name = "DemiBold{119,100}";
paths = (
{
closed = 1;
nodes = (
"494 0 LINE",
"494 111 LINE",
"229 111 LINE",
"229 589 LINE",
"494 589 LINE",
"494 700 LINE",
"105 700 LINE",
"105 0 LINE"
);
},
{
closed = 1;
nodes = (
"386 300 LINE",
"386 400 LINE",
"177 400 LINE",
"177 300 LINE"
);
}
);
width = 559;
}
);
unicode = 0045;
},
{
color = 1;
glyphname = F;
lastChange = "2016-10-17 07:41:18 +0000";
layers = (
{
layerId = "262880E7-CFE1-4BDA-902E-E24798F3240A";
paths = (
{
closed = 1;
nodes = (
"189 0 LINE",
"189 679 LINE",
"488 679 LINE",
"488 700 LINE",
"167 700 LINE",
"167 0 LINE"
);
},
{
closed = 1;
nodes = (
"383 340 LINE",
"383 361 LINE",
"178 361 LINE",
"178 340 LINE"
);
}
);
width = 571;
},
{
layerId = "4F25946F-63AC-42D6-8D55-01CF6A99025B";
paths = (
{
closed = 1;
nodes = (
"261 0 LINE",
"261 512 LINE",
"529 512 LINE",
"529 700 LINE",
"53 700 LINE",
"53 0 LINE"
);
},
{
closed = 1;
nodes = (
"417 266 LINE",
"417 434 LINE",
"174 434 LINE",
"174 266 LINE"
);
}
);
width = 559;
},
{
associatedMasterId = "262880E7-CFE1-4BDA-902E-E24798F3240A";
layerId = "E70C252C-4698-4A26-900C-4F3FD049D2BA";
name = "DemiBold{119,100}";
paths = (
{
closed = 1;
nodes = (
"232 0 LINE",
"232 589 LINE",
"493 589 LINE",
"493 700 LINE",
"106 700 LINE",
"106 0 LINE"
);
},
{
closed = 1;
nodes = (
"385 300 LINE",
"385 400 LINE",
"180 400 LINE",
"180 300 LINE"
);
}
);
width = 544;
}
);
unicode = 0046;
},
{
color = 1;
glyphname = G;
lastChange = "2016-10-17 05:45:04 +0000";
layers = (
{
layerId = "262880E7-CFE1-4BDA-902E-E24798F3240A";
paths = (
{
closed = 1;
nodes = (
"417 -9 OFFCURVE",
"479 51 OFFCURVE",
"479 150 CURVE",
"479 361 LINE",
"318 361 LINE",
"318 340 LINE",
"457 340 LINE",
"457 150 LINE",
"457 63 OFFCURVE",
"405 11 OFFCURVE",
"318 11 CURVE SMOOTH",
"231 11 OFFCURVE",
"179 63 OFFCURVE",
"179 150 CURVE",
"179 550 LINE",
"179 637 OFFCURVE",
"231 690 OFFCURVE",
"318 690 CURVE SMOOTH",
"405 690 OFFCURVE",
"457 637 OFFCURVE",
"457 550 CURVE",
"479 550 LINE",
"479 649 OFFCURVE",
"417 709 OFFCURVE",
"318 709 CURVE SMOOTH",
"219 709 OFFCURVE",
"157 649 OFFCURVE",
"157 550 CURVE",
"157 150 LINE",
"157 51 OFFCURVE",
"219 -9 OFFCURVE",
"318 -9 CURVE SMOOTH"
);
}
);
width = 619;
},
{
layerId = "4F25946F-63AC-42D6-8D55-01CF6A99025B";
paths = (
{
closed = 1;
nodes = (
"442 -10 OFFCURVE",
"544 88 OFFCURVE",
"544 234 CURVE SMOOTH",
"544 400 LINE",
"288 400 LINE",
"288 270 LINE",
"332 270 LINE",
"332 234 LINE SMOOTH",
"332 200 OFFCURVE",
"314 178 OFFCURVE",
"288 178 CURVE SMOOTH",
"262 178 OFFCURVE",
"244 200 OFFCURVE",
"244 234 CURVE SMOOTH",
"244 466 LINE SMOOTH",
"244 500 OFFCURVE",
"262 522 OFFCURVE",
"288 522 CURVE SMOOTH",
"314 522 OFFCURVE",
"332 500 OFFCURVE",
"332 466 CURVE",
"544 466 LINE",
"544 612 OFFCURVE",
"442 710 OFFCURVE",
"288 710 CURVE SMOOTH",
"134 710 OFFCURVE",
"32 612 OFFCURVE",
"32 466 CURVE SMOOTH",
"32 234 LINE SMOOTH",
"32 88 OFFCURVE",
"134 -10 OFFCURVE",
"288 -10 CURVE SMOOTH"
);
}
);
width = 573;
},
{
associatedMasterId = "262880E7-CFE1-4BDA-902E-E24798F3240A";
layerId = "4BB53C67-4989-441E-8A0D-7E4F5FC64094";
name = "Medium {91, 100}";
paths = (
{
closed = 1;
nodes = (
"426 -9 OFFCURVE",
"504 65 OFFCURVE",
"504 182 CURVE",
"504 376 LINE",
"307 376 LINE",
"307 290 LINE",
"410 290 LINE",
"410 182 LINE",
"410 115 OFFCURVE",
"370 74 OFFCURVE",
"307 74 CURVE SMOOTH",
"243 74 OFFCURVE",
"204 115 OFFCURVE",
"204 182 CURVE",
"204 518 LINE",
"204 585 OFFCURVE",
"243 626 OFFCURVE",
"307 626 CURVE SMOOTH",
"370 626 OFFCURVE",
"410 585 OFFCURVE",
"410 518 CURVE",
"504 518 LINE",
"504 635 OFFCURVE",
"426 709 OFFCURVE",
"307 709 CURVE SMOOTH",
"187 709 OFFCURVE",
"110 635 OFFCURVE",
"110 518 CURVE",
"110 182 LINE",
"110 65 OFFCURVE",
"187 -9 OFFCURVE",
"307 -9 CURVE SMOOTH"
);
}
);
width = 602;
}
);
unicode = 0047;
},
{
color = 1;
glyphname = H;
lastChange = "2016-10-17 07:58:49 +0000";
layers = (
{
layerId = "262880E7-CFE1-4BDA-902E-E24798F3240A";
paths = (
{
closed = 1;
nodes = (
"489 0 LINE",
"489 700 LINE",
"467 700 LINE",
"467 0 LINE"
);
},
{
closed = 1;
nodes = (
"189 0 LINE",
"189 700 LINE",
"167 700 LINE",
"167 0 LINE"
);
},
{
closed = 1;
nodes = (
"472 340 LINE",
"472 361 LINE",
"184 361 LINE",
"184 340 LINE"
);
}
);
width = 656;
},
{
layerId = "4F25946F-63AC-42D6-8D55-01CF6A99025B";
paths = (
{
closed = 1;
nodes = (
"541 0 LINE",
"541 700 LINE",
"331 700 LINE",
"331 0 LINE"
);
},
{
closed = 1;
nodes = (
"243 0 LINE",
"243 700 LINE",
"33 700 LINE",
"33 0 LINE"
);
},
{
closed = 1;
nodes = (
"347 246 LINE",
"347 434 LINE",
"227 434 LINE",
"227 246 LINE"
);
}
);
width = 574;
}
);
unicode = 0048;
},
{
color = 1;
glyphname = I;
lastChange = "2016-10-17 07:58:49 +0000";
layers = (
{
layerId = "262880E7-CFE1-4BDA-902E-E24798F3240A";
paths = (
{
closed = 1;
nodes = (
"189 0 LINE",
"189 700 LINE",
"167 700 LINE",
"167 0 LINE"
);
}
);
width = 356;
},
{
layerId = "4F25946F-63AC-42D6-8D55-01CF6A99025B";
paths = (
{
closed = 1;
nodes = (
"235 0 LINE",
"235 700 LINE",
"33 700 LINE",
"33 0 LINE"
);
}
);
width = 268;
}
);
unicode = 0049;
},
{
color = 1;
glyphname = J;
lastChange = "2016-10-17 07:58:49 +0000";
layers = (
{
layerId = "262880E7-CFE1-4BDA-902E-E24798F3240A";
paths = (
{
closed = 1;
nodes = (
"357 -11 OFFCURVE",
"417 50 OFFCURVE",
"417 150 CURVE SMOOTH",
"417 700 LINE",
"395 700 LINE",
"395 150 LINE",
"395 64 OFFCURVE",
"343 11 OFFCURVE",
"259 11 CURVE SMOOTH",
"175 11 OFFCURVE",
"123 64 OFFCURVE",
"123 150 CURVE SMOOTH",
"123 195 LINE",
"101 195 LINE",
"101 150 LINE SMOOTH",
"101 50 OFFCURVE",
"161 -11 OFFCURVE",
"259 -11 CURVE SMOOTH"
);
}
);
width = 579;
},
{
layerId = "4F25946F-63AC-42D6-8D55-01CF6A99025B";
paths = (
{
closed = 1;
nodes = (
"392 -10 OFFCURVE",
"492 88 OFFCURVE",
"492 235 CURVE",
"487 702 LINE",
"275 700 LINE",
"280 233 LINE",
"280 200 OFFCURVE",
"264 178 OFFCURVE",
"241 178 CURVE SMOOTH",
"218 178 OFFCURVE",
"202 200 OFFCURVE",
"202 234 CURVE SMOOTH",
"202 290 LINE",
"-10 290 LINE",
"-10 234 LINE SMOOTH",
"-10 88 OFFCURVE",
"90 -10 OFFCURVE",
"241 -10 CURVE SMOOTH"
);
}
);
width = 513;
}
);
unicode = 004A;
},
{
color = 1;
glyphname = K;
lastChange = "2016-10-17 05:45:50 +0000";
layers = (
{
layerId = "262880E7-CFE1-4BDA-902E-E24798F3240A";
paths = (
{
closed = 1;
nodes = (
"499 0 LINE",
"203 350 LINE",
"499 700 LINE",
"473 700 LINE",
"175 350 LINE",
"473 0 LINE"
);
},
{
closed = 1;
nodes = (
"189 0 LINE",
"189 700 LINE",
"167 700 LINE",
"167 0 LINE"
);
}
);
width = 590;
},
{
layerId = "4F25946F-63AC-42D6-8D55-01CF6A99025B";
paths = (
{
closed = 1;
nodes = (
"584 0 LINE",
"409 350 LINE",
"581 700 LINE",
"331 700 LINE",
"191 350 LINE",
"331 0 LINE"
);
},
{
closed = 1;
nodes = (
"261 0 LINE",
"261 700 LINE",
"53 700 LINE",
"53 0 LINE"
);
}
);
width = 588;
},
{
associatedMasterId = "262880E7-CFE1-4BDA-902E-E24798F3240A";
layerId = "52A147BE-A087-4D72-9A5D-908B44B10E17";
name = "Medium {91, 100}";
paths = (
{
closed = 1;
nodes = (
"524 0 LINE",
"260 350 LINE",
"522 700 LINE",
"407 700 LINE",
"142 350 LINE",
"407 0 LINE"
);
},
{
closed = 1;
nodes = (
"218 0 LINE",
"218 700 LINE",
"124 700 LINE",
"124 0 LINE"
);
}
);
width = 589;
},
{
associatedMasterId = "4F25946F-63AC-42D6-8D55-01CF6A99025B";
layerId = "57219196-2667-4E9B-A894-DD00D1913D76";
name = "Bold Oct 15 16, 02:53";
paths = (
{
closed = 1;
nodes = (
"590 0 LINE",
"413 350 LINE",
"585 700 LINE",
"335 700 LINE",
"193 350 LINE",
"335 0 LINE"
);
},
{
closed = 1;
nodes = (
"265 0 LINE",
"265 700 LINE",
"57 700 LINE",
"57 0 LINE"
);
}
);
width = 593;
}
);
unicode = 004B;
},
{
color = 1;
glyphname = L;
lastChange = "2016-10-17 05:23:46 +0000";
layers = (
{
layerId = "262880E7-CFE1-4BDA-902E-E24798F3240A";
paths = (
{
closed = 1;
nodes = (
"478 0 LINE",
"478 22 LINE",
"189 22 LINE",
"189 700 LINE",
"167 700 LINE",
"167 0 LINE"
);
}
);
width = 561;
},
{
layerId = "4F25946F-63AC-42D6-8D55-01CF6A99025B";
paths = (
{
closed = 1;
nodes = (
"510 0 LINE",
"510 192 LINE",
"261 192 LINE",
"261 700 LINE",
"53 700 LINE",
"53 0 LINE"
);
}
);
width = 531;
}
);
unicode = 004C;
},
{
color = 1;
glyphname = M;
lastChange = "2016-10-17 05:46:26 +0000";
layers = (
{
layerId = "262880E7-CFE1-4BDA-902E-E24798F3240A";
paths = (
{
closed = 1;
nodes = (
"186 0 LINE",
"189 655 LINE",
"346 324 LINE",
"504 655 LINE",
"504 0 LINE",
"525 0 LINE",
"525 700 LINE",
"503 700 LINE",
"346 372 LINE",
"189 700 LINE",
"167 700 LINE",
"167 0 LINE"
);
}
);
width = 692;
},
{
layerId = "4F25946F-63AC-42D6-8D55-01CF6A99025B";
paths = (
{
closed = 1;
nodes = (
"265 0 LINE",
"265 364 LINE",
"347 232 LINE",
"429 364 LINE",
"429 0 LINE",
"641 0 LINE",
"641 698 LINE",
"435 698 LINE",
"347 522 LINE",
"256 702 LINE",
"53 702 LINE",
"53 0 LINE"
);
}
);
width = 694;
},
{
associatedMasterId = "4F25946F-63AC-42D6-8D55-01CF6A99025B";
layerId = "BF6C6FBC-ABCF-4728-B32F-BE7F013B92F9";
name = "Medium {91, 100}";
paths = (
{
closed = 1;
nodes = (
"216 0 LINE",
"218 503 LINE",
"346 261 LINE",
"476 503 LINE",
"476 0 LINE",
"569 0 LINE",
"569 699 LINE",
"477 699 LINE",
"346 423 LINE",
"214 701 LINE",
"124 701 LINE",
"124 0 LINE"
);
}
);
width = 693;
}
);
unicode = 004D;
},
{
color = 1;
glyphname = N;
lastChange = "2016-10-17 07:58:49 +0000";
layers = (
{
layerId = "262880E7-CFE1-4BDA-902E-E24798F3240A";
paths = (
{
closed = 1;
nodes = (
"189 0 LINE",
"189 647 LINE",
"466 0 LINE",
"489 0 LINE",
"489 700 LINE",
"467 700 LINE",
"467 53 LINE",
"190 700 LINE",
"167 700 LINE",
"167 0 LINE"
);
}
);
width = 656;
},
{
layerId = "4F25946F-63AC-42D6-8D55-01CF6A99025B";
paths = (
{
closed = 1;
nodes = (
"223 0 LINE",
"226 269 LINE",
"374 0 LINE",
"538 0 LINE",
"538 700 LINE",
"341 700 LINE",
"341 404 LINE",
"187 700 LINE",
"23 700 LINE",
"23 0 LINE"
);
}
);
width = 561;
},
{
associatedMasterId = "4F25946F-63AC-42D6-8D55-01CF6A99025B";
layerId = "0B1885C1-B30B-43AF-BA88-F41889FEAFD7";
name = "DemiBold{119,100}";
paths = (
{
closed = 1;
nodes = (
"218 0 LINE",
"220 393 LINE",
"427 0 LINE",
"526.006 0 LINE",
"526.006 700 LINE",
"410 700 LINE",
"410 284 LINE",
"199 700 LINE",
"100 700 LINE",
"100 0 LINE"
);
}
);
width = 627;
}
);
unicode = 004E;
},
{
color = 1;
glyphname = O;
lastChange = "2016-10-17 05:23:47 +0000";
layers = (
{
layerId = "262880E7-CFE1-4BDA-902E-E24798F3240A";
paths = (
{
closed = 1;
nodes = (
"405 -9 OFFCURVE",
"477 60 OFFCURVE",
"477 150 CURVE SMOOTH",
"477 550 LINE SMOOTH",
"477 640 OFFCURVE",
"405 709 OFFCURVE",
"316 709 CURVE SMOOTH",
"227 709 OFFCURVE",
"155 640 OFFCURVE",
"155 550 CURVE SMOOTH",
"155 150 LINE SMOOTH",
"155 60 OFFCURVE",
"227 -9 OFFCURVE",
"316 -9 CURVE SMOOTH"
);
},
{
closed = 1;
nodes = (
"237 11 OFFCURVE",
"177 72 OFFCURVE",
"177 150 CURVE SMOOTH",
"177 550 LINE SMOOTH",
"177 629 OFFCURVE",
"239 690 OFFCURVE",
"316 690 CURVE SMOOTH",
"393 690 OFFCURVE",
"455 629 OFFCURVE",
"455 550 CURVE SMOOTH",
"455 150 LINE SMOOTH",
"455 72 OFFCURVE",
"395 11 OFFCURVE",
"316 11 CURVE SMOOTH"
);
}
);
width = 632;
},
{
layerId = "4F25946F-63AC-42D6-8D55-01CF6A99025B";
paths = (
{
closed = 1;
nodes = (
"448 -10 OFFCURVE",
"552 87 OFFCURVE",
"552 233 CURVE SMOOTH",
"552 467 LINE SMOOTH",
"552 613 OFFCURVE",
"448 710 OFFCURVE",
"292 710 CURVE SMOOTH",
"136 710 OFFCURVE",
"32 613 OFFCURVE",
"32 467 CURVE SMOOTH",
"32 233 LINE SMOOTH",
"32 87 OFFCURVE",
"136 -10 OFFCURVE",
"292 -10 CURVE SMOOTH"
);
},
{
closed = 1;
nodes = (
"263 174 OFFCURVE",
"244 194 OFFCURVE",
"244 223 CURVE SMOOTH",
"244 477 LINE SMOOTH",
"244 506 OFFCURVE",
"263 526 OFFCURVE",
"292 526 CURVE SMOOTH",
"321 526 OFFCURVE",
"340 506 OFFCURVE",
"340 477 CURVE SMOOTH",
"340 223 LINE SMOOTH",
"340 194 OFFCURVE",
"321 174 OFFCURVE",
"292 174 CURVE SMOOTH"
);
}
);
width = 584;
}
);
unicode = 004F;
},
{
color = 1;
glyphname = P;
lastChange = "2016-10-17 05:23:46 +0000";
layers = (
{
layerId = "262880E7-CFE1-4BDA-902E-E24798F3240A";
paths = (
{
closed = 1;
nodes = (
"189 0 LINE",
"189 679 LINE",
"313 679 LINE SMOOTH",
"413 679 OFFCURVE",
"474 616 OFFCURVE",
"474 513 CURVE SMOOTH",
"474 409 OFFCURVE",
"413 346 OFFCURVE",
"313 346 CURVE SMOOTH",
"184 346 LINE",
"184 324 LINE",
"313 325 LINE SMOOTH",
"426 326 OFFCURVE",
"496 397 OFFCURVE",
"496 512 CURVE SMOOTH",
"496 629 OFFCURVE",
"426 700 OFFCURVE",
"313 700 CURVE SMOOTH",
"167 700 LINE",
"167 0 LINE"
);
}
);
width = 605;
},
{
layerId = "4F25946F-63AC-42D6-8D55-01CF6A99025B";
paths = (
{
closed = 1;
nodes = (
"265 0 LINE",
"265 512 LINE",
"294 512 LINE SMOOTH",
"323 512 OFFCURVE",
"343 492 OFFCURVE",
"343 462 CURVE SMOOTH",
"343 432 OFFCURVE",
"323 412 OFFCURVE",
"294 412 CURVE SMOOTH",
"249 412 LINE",
"249 233 LINE",
"333 233 LINE SMOOTH",
"466 233 OFFCURVE",
"555 326 OFFCURVE",
"555 465 CURVE SMOOTH",
"555 606 OFFCURVE",
"463 700 OFFCURVE",
"324 700 CURVE SMOOTH",
"53 700 LINE",
"53 0 LINE"
);
}
);
width = 568;
}
);
unicode = 0050;
},
{
color = 1;
glyphname = Q;
lastChange = "2016-10-17 05:23:46 +0000";
layers = (
{
layerId = "262880E7-CFE1-4BDA-902E-E24798F3240A";
paths = (
{
closed = 1;
nodes = (
"405 -11 OFFCURVE",
"477 60 OFFCURVE",
"477 150 CURVE SMOOTH",
"477 550 LINE SMOOTH",
"477 640 OFFCURVE",
"405 711 OFFCURVE",
"316 711 CURVE SMOOTH",
"227 711 OFFCURVE",
"155 640 OFFCURVE",
"155 550 CURVE SMOOTH",
"155 150 LINE SMOOTH",
"155 60 OFFCURVE",
"227 -11 OFFCURVE",
"316 -11 CURVE SMOOTH"
);
},
{
closed = 1;
nodes = (
"494 -41 LINE",
"285 11 LINE",
"280 -7 LINE",
"487 -65 LINE"
);
},
{
closed = 1;
nodes = (
"237 11 OFFCURVE",
"177 72 OFFCURVE",
"177 150 CURVE SMOOTH",
"177 550 LINE SMOOTH",
"177 629 OFFCURVE",
"239 690 OFFCURVE",
"316 690 CURVE SMOOTH",
"393 690 OFFCURVE",
"455 629 OFFCURVE",
"455 550 CURVE SMOOTH",
"455 150 LINE SMOOTH",
"455 72 OFFCURVE",
"395 11 OFFCURVE",
"316 11 CURVE SMOOTH"
);
}
);
width = 633;
},
{
layerId = "4F25946F-63AC-42D6-8D55-01CF6A99025B";
paths = (
{
closed = 1;
nodes = (
"443 -10 OFFCURVE",
"545 87 OFFCURVE",
"545 233 CURVE SMOOTH",
"545 467 LINE SMOOTH",
"545 613 OFFCURVE",
"443 710 OFFCURVE",
"289 710 CURVE SMOOTH",
"135 710 OFFCURVE",
"33 613 OFFCURVE",
"33 467 CURVE SMOOTH",
"33 233 LINE SMOOTH",
"33 87 OFFCURVE",
"135 -10 OFFCURVE",
"289 -10 CURVE SMOOTH"
);
},
{
closed = 1;
nodes = (
"561 113 LINE",
"237 118 LINE",
"237 -6 LINE",
"553 -43 LINE"
);
},
{
closed = 1;
nodes = (
"263 178 OFFCURVE",
"245 196 OFFCURVE",
"245 223 CURVE SMOOTH",
"245 477 LINE SMOOTH",
"245 504 OFFCURVE",
"263 522 OFFCURVE",
"289 522 CURVE SMOOTH",
"315 522 OFFCURVE",
"333 504 OFFCURVE",
"333 477 CURVE SMOOTH",
"333 223 LINE SMOOTH",
"333 196 OFFCURVE",
"315 178 OFFCURVE",
"289 178 CURVE SMOOTH"
);
}
);
width = 591;
}
);
unicode = 0051;
},
{
color = 1;
glyphname = R;
lastChange = "2016-10-17 05:47:22 +0000";
layers = (
{
layerId = "262880E7-CFE1-4BDA-902E-E24798F3240A";
paths = (
{
closed = 1;
nodes = (
"189 0 LINE",
"189 679 LINE",
"316 679 LINE SMOOTH",
"416 679 OFFCURVE",
"477 616 OFFCURVE",
"477 512 CURVE SMOOTH",
"477 408 OFFCURVE",
"416 344 OFFCURVE",
"316 344 CURVE SMOOTH",
"184 344 LINE",
"184 322 LINE",
"316 323 LINE SMOOTH",
"429 324 OFFCURVE",
"499 395 OFFCURVE",
"499 511 CURVE SMOOTH",
"499 628 OFFCURVE",
"429 700 OFFCURVE",
"316 700 CURVE SMOOTH",
"167 700 LINE",
"167 0 LINE"
);
},
{
closed = 1;
nodes = (
"457 0 LINE",
"338 340 LINE",
"318 332 LINE",
"433 0 LINE"
);
}
);
width = 612;
},
{
layerId = "4F25946F-63AC-42D6-8D55-01CF6A99025B";
paths = (
{
closed = 1;
nodes = (
"255 0 LINE",
"255 512 LINE",
"307 512 LINE SMOOTH",
"336 512 OFFCURVE",
"356 492 OFFCURVE",
"356 462 CURVE SMOOTH",
"356 432 OFFCURVE",
"336 412 OFFCURVE",
"307 412 CURVE SMOOTH",
"239 412 LINE",
"239 259 LINE",
"399 259 LINE SMOOTH",
"508 259 OFFCURVE",
"580 343 OFFCURVE",
"580 469 CURVE SMOOTH",
"580 608 OFFCURVE",
"496 700 OFFCURVE",
"369 700 CURVE SMOOTH",
"53 700 LINE",
"53 0 LINE"
);
},
{
closed = 1;
nodes = (
"595 0 LINE",
"422 320 LINE",
"206 320 LINE",
"357 0 LINE"
);
}
);
width = 607;
},
{
associatedMasterId = "4F25946F-63AC-42D6-8D55-01CF6A99025B";
layerId = "226A43B5-5CBD-42C7-8731-3A5BF7E3E8A0";
name = "Medium{91,100}";
paths = (
{
closed = 1;
nodes = (
"215 0 LINE",
"215 616 LINE",
"328 616 LINE SMOOTH",
"399 616 OFFCURVE",
"446 567 OFFCURVE",
"446 493 CURVE SMOOTH",
"446 419 OFFCURVE",
"399 370 OFFCURVE",
"328 370 CURVE SMOOTH",
"205 370 LINE",
"205 284 LINE",
"348 285 LINE SMOOTH",
"457 286 OFFCURVE",
"530 369 OFFCURVE",
"530 492 CURVE SMOOTH",
"530 619 OFFCURVE",
"453 700 OFFCURVE",
"337 700 CURVE SMOOTH",
"124 700 LINE",
"124 0 LINE"
);
},
{
closed = 1;
nodes = (
"504 0 LINE",
"374 332 LINE",
"280 327 LINE",
"398 0 LINE"
);
}
);
width = 610;
}
);
unicode = 0052;
},
{
color = 1;
glyphname = S;
lastChange = "2016-10-17 07:58:49 +0000";
layers = (
{
layerId = "262880E7-CFE1-4BDA-902E-E24798F3240A";
paths = (
{
closed = 1;
nodes = (
"391 -9 OFFCURVE",
"453 50 OFFCURVE",
"453 149 CURVE SMOOTH",
"453 255 OFFCURVE",
"381 306 OFFCURVE",
"298 361 CURVE SMOOTH",
"215 416 OFFCURVE",
"153 459 OFFCURVE",
"153 552 CURVE SMOOTH",
"153 636 OFFCURVE",
"205 690 OFFCURVE",
"289 690 CURVE SMOOTH",
"373 690 OFFCURVE",
"425 637 OFFCURVE",
"425 550 CURVE SMOOTH",
"425 500 LINE",
"447 500 LINE",
"447 550 LINE SMOOTH",
"447 650 OFFCURVE",
"387 709 OFFCURVE",
"289 709 CURVE SMOOTH",
"191 709 OFFCURVE",
"131 649 OFFCURVE",
"131 553 CURVE SMOOTH",
"131 446 OFFCURVE",
"206 394 OFFCURVE",
"284 342 CURVE SMOOTH",
"361 291 OFFCURVE",
"431 244 OFFCURVE",
"431 148 CURVE SMOOTH",
"431 63 OFFCURVE",
"377 11 OFFCURVE",
"290 11 CURVE SMOOTH",
"203 11 OFFCURVE",
"153 64 OFFCURVE",
"153 150 CURVE SMOOTH",
"153 210 LINE",
"133 210 LINE",
"133 150 LINE SMOOTH",
"133 50 OFFCURVE",
"190 -9 OFFCURVE",
"291 -9 CURVE SMOOTH"
);
}
);
width = 581;
},
{
layerId = "4F25946F-63AC-42D6-8D55-01CF6A99025B";
paths = (
{
closed = 1;
nodes = (
"416 -10 OFFCURVE",
"510 74 OFFCURVE",
"510 200 CURVE SMOOTH",
"510 312 OFFCURVE",
"436 381 OFFCURVE",
"323 425 CURVE SMOOTH",
"277 443 OFFCURVE",
"224 456 OFFCURVE",
"224 489 CURVE SMOOTH",
"224 503 OFFCURVE",
"234 518 OFFCURVE",
"258 518 CURVE SMOOTH",
"284 518 OFFCURVE",
"299 501 OFFCURVE",
"299 479 CURVE SMOOTH",
"299 464 LINE",
"511 474 LINE",
"511 479 LINE SMOOTH",
"511 617 OFFCURVE",
"404 710 OFFCURVE",
"252 710 CURVE SMOOTH",
"105 710 OFFCURVE",
"9 624 OFFCURVE",
"9 498 CURVE SMOOTH",
"9 389 OFFCURVE",
"82 318 OFFCURVE",
"196 275 CURVE SMOOTH",
"238 259 OFFCURVE",
"294 245 OFFCURVE",
"294 214 CURVE SMOOTH",
"294 201 OFFCURVE",
"285 182 OFFCURVE",
"259 182 CURVE SMOOTH",
"235 182 OFFCURVE",
"220 199 OFFCURVE",
"220 231 CURVE SMOOTH",
"220 236 LINE",
"-3 226 LINE",
"-3 221 LINE SMOOTH",
"-3 83 OFFCURVE",
"103 -10 OFFCURVE",
"263 -10 CURVE SMOOTH"
);
}
);
width = 512;
}
);
unicode = 0053;
},
{
color = 1;
glyphname = T;
lastChange = "2016-10-17 07:58:49 +0000";
layers = (
{
layerId = "262880E7-CFE1-4BDA-902E-E24798F3240A";
paths = (
{
closed = 1;
nodes = (
"251 0 LINE",
"251 689 LINE",
"229 689 LINE",
"229 0 LINE"
);
},
{
closed = 1;
nodes = (
"405 679 LINE",
"405 700 LINE",
"83 700 LINE",
"83 679 LINE"
);
}
);
width = 488;
},
{
layerId = "4F25946F-63AC-42D6-8D55-01CF6A99025B";
paths = (
{
closed = 1;
nodes = (
"352 0 LINE",
"352 606 LINE",
"140 606 LINE",
"140 0 LINE"
);
},
{
closed = 1;
nodes = (
"500 500 LINE",
"500 700 LINE",
"-8 700 LINE",
"-8 500 LINE"
);
}
);
width = 492;
}
);
unicode = 0054;
},
{
color = 1;
glyphname = U;
lastChange = "2016-10-17 07:58:49 +0000";
layers = (
{
layerId = "262880E7-CFE1-4BDA-902E-E24798F3240A";
paths = (
{
closed = 1;
nodes = (
"422 -9 OFFCURVE",
"484 50 OFFCURVE",
"484 150 CURVE SMOOTH",
"484 700 LINE",
"462 700 LINE",
"462 150 LINE SMOOTH",
"462 64 OFFCURVE",
"410 11 OFFCURVE",
"323 11 CURVE SMOOTH",
"236 11 OFFCURVE",
"184 64 OFFCURVE",
"184 150 CURVE SMOOTH",
"184 700 LINE",
"162 700 LINE",
"162 150 LINE SMOOTH",
"162 50 OFFCURVE",
"224 -9 OFFCURVE",
"323 -9 CURVE SMOOTH"
);
}
);
width = 646;
},
{
layerId = "4F25946F-63AC-42D6-8D55-01CF6A99025B";
paths = (
{
closed = 1;
nodes = (
"433 -10 OFFCURVE",
"535 88 OFFCURVE",
"535 234 CURVE SMOOTH",
"535 700 LINE",
"323 700 LINE",
"323 234 LINE SMOOTH",
"323 200 OFFCURVE",
"305 178 OFFCURVE",
"279 178 CURVE SMOOTH",
"253 178 OFFCURVE",
"235 200 OFFCURVE",
"235 234 CURVE SMOOTH",
"235 700 LINE",
"23 700 LINE",
"23 234 LINE SMOOTH",
"23 88 OFFCURVE",
"125 -10 OFFCURVE",
"279 -10 CURVE SMOOTH"
);
}
);
width = 558;
}
);
unicode = 0055;
},
{
color = 1;
glyphname = V;
lastChange = "2016-10-17 05:47:44 +0000";
layers = (
{
layerId = "262880E7-CFE1-4BDA-902E-E24798F3240A";
paths = (
{
closed = 1;
nodes = (
"289 0 LINE",
"454 700 LINE",
"432 700 LINE",
"278 40 LINE",
"124 700 LINE",
"102 700 LINE",
"267 0 LINE"
);
}
);
width = 556;
},
{
layerId = "4F25946F-63AC-42D6-8D55-01CF6A99025B";
paths = (
{
closed = 1;
nodes = (
"386 0 LINE",
"556 700 LINE",
"341 700 LINE",
"280 300 LINE",
"219 700 LINE",
"4 700 LINE",
"174 0 LINE"
);
}
);
width = 560;
},
{
associatedMasterId = "262880E7-CFE1-4BDA-902E-E24798F3240A";
layerId = "4E067D8C-FFB4-48BF-AEBE-68DF3842147F";
name = "Medium {91,100}";
paths = (
{
closed = 1;
nodes = (
"327 0 LINE",
"493 700 LINE",
"398 700 LINE",
"279 147 LINE",
"161 700 LINE",
"65 700 LINE",
"232 0 LINE"
);
}
);
width = 558;
}
);
unicode = 0056;
},
{
color = 1;
glyphname = W;
lastChange = "2016-10-17 05:47:58 +0000";
layers = (
{
layerId = "262880E7-CFE1-4BDA-902E-E24798F3240A";
paths = (
{
closed = 1;
nodes = (
"256 0 LINE",
"370 648 LINE",
"484 0 LINE",
"506 0 LINE",
"631 700 LINE",
"609 700 LINE",
"495 52 LINE",
"381 700 LINE",
"359 700 LINE",
"245 52 LINE",
"131 700 LINE",
"109 700 LINE",
"234 0 LINE"
);
}
);
width = 740;
},
{
layerId = "4F25946F-63AC-42D6-8D55-01CF6A99025B";
paths = (
{
closed = 1;
nodes = (
"378 1 LINE",
"414 307 LINE",
"450 1 LINE",
"668 1 LINE",
"822 700 LINE",
"606 700 LINE",
"561 363 LINE",
"519 699 LINE",
"309 699 LINE",
"267 363 LINE",
"222 700 LINE",
"6 700 LINE",
"160 1 LINE"
);
}
);
width = 828;
},
{
associatedMasterId = "4F25946F-63AC-42D6-8D55-01CF6A99025B";
layerId = "11607437-4DCD-4C94-9EDA-1AD54BE1AE48";
name = "Medium { 91, 100}";
paths = (
{
closed = 1;
nodes = (
"300 0 LINE",
"384 528 LINE",
"469 0 LINE",
"562 0 LINE",
"698 700 LINE",
"605 700 LINE",
"519 160 LINE",
"432 700 LINE",
"336 700 LINE",
"250 160 LINE",
"163 700 LINE",
"70 700 LINE",
"207 0 LINE"
);
}
);
width = 773;
}
);
unicode = 0057;
},
{
color = 1;
glyphname = X;
lastChange = "2016-10-17 05:48:25 +0000";
layers = (
{
layerId = "262880E7-CFE1-4BDA-902E-E24798F3240A";
paths = (
{
closed = 1;
nodes = (
"412 700 LINE",
"269 376 LINE",
"126 700 LINE",
"103 700 LINE",
"258 350 LINE",
"103 0 LINE",
"126 0 LINE",
"269 324 LINE",
"412 0 LINE",
"435 0 LINE",
"281 350 LINE",
"435 700 LINE"
);
}
);
width = 538;
},
{
layerId = "4F25946F-63AC-42D6-8D55-01CF6A99025B";
paths = (
{
closed = 1;
nodes = (
"360 700 LINE",
"293 559 LINE",
"226 700 LINE",
"-12 700 LINE",
"176 350 LINE",
"-12 0 LINE",
"226 0 LINE",
"293 141 LINE",
"360 0 LINE",
"598 0 LINE",
"410 350 LINE",
"598 700 LINE"
);
}
);
width = 586;
},
{
associatedMasterId = "4F25946F-63AC-42D6-8D55-01CF6A99025B";
layerId = "A81EC77E-A514-41C1-A690-EF61EA7402F1";
name = "Bold Oct 15 16, 02:50";
paths = (
{
closed = 1;
nodes = (
"4 700 LINE",
"242 700 LINE",
"582 0 LINE",
"344 0 LINE"
);
},
{
closed = 1;
nodes = (
"344 700 LINE",
"582 700 LINE",
"242 0 LINE",
"4 0 LINE"
);
}
);
width = 586;
},
{
associatedMasterId = "262880E7-CFE1-4BDA-902E-E24798F3240A";
layerId = "F2B2385B-1C24-46F1-AB29-8D87B4EEE0C2";
name = "DEMIBOLD{119,100}";
paths = (
{
closed = 1;
nodes = (
"366 700 LINE",
"269 471 LINE",
"173 700 LINE",
"41 700 LINE",
"204 350 LINE",
"41 0 LINE",
"173 0 LINE",
"269 229 LINE",
"366 0 LINE",
"497 0 LINE",
"335 350 LINE",
"497 700 LINE"
);
}
);
width = 539;
},
{
associatedMasterId = "262880E7-CFE1-4BDA-902E-E24798F3240A";
layerId = "077702AC-624F-4016-8C7C-9CDBE6837B88";
name = "Light Oct 16 16, 21:49";
paths = (
{
closed = 1;
nodes = (
"441 700 LINE",
"298 376 LINE",
"155 700 LINE",
"132 700 LINE",
"287 350 LINE",
"132 0 LINE",
"155 0 LINE",
"298 324 LINE",
"441 0 LINE",
"464 0 LINE",
"310 350 LINE",
"464 700 LINE"
);
}
);
width = 596;
}
);
unicode = 0058;
},
{
color = 1;
glyphname = Y;
lastChange = "2016-10-17 05:23:46 +0000";
layers = (
{
layerId = "262880E7-CFE1-4BDA-902E-E24798F3240A";
paths = (
{
closed = 1;
nodes = (
"424 700 LINE",
"399 700 LINE",
"257 379 LINE",
"116 700 LINE",
"90 700 LINE",
"257 328 LINE"
);
},
{
closed = 1;
nodes = (
"268 0 LINE",
"268 350 LINE",
"246 350 LINE",
"246 0 LINE"
);
}
);
width = 514;
},
{
layerId = "4F25946F-63AC-42D6-8D55-01CF6A99025B";
paths = (
{
closed = 1;
nodes = (
"636 700 LINE",
"410 700 LINE",
"323 479 LINE",
"235 700 LINE",
"-1 700 LINE",
"322 12 LINE"
);
},
{
closed = 1;
nodes = (
"430 0 LINE",
"430 350 LINE",
"214 350 LINE",
"214 0 LINE"
);
}
);
width = 635;
}
);
unicode = 0059;
},
{
color = 1;
glyphname = Z;
lastChange = "2016-10-17 05:23:45 +0000";
layers = (
{
layerId = "262880E7-CFE1-4BDA-902E-E24798F3240A";
paths = (
{
closed = 1;
nodes = (
"411 0 LINE",
"411 22 LINE",
"127 22 LINE",
"427 700 LINE",
"111 700 LINE",
"111 679 LINE",
"395 679 LINE",
"95 0 LINE"
);
}
);
width = 522;
},
{
layerId = "4F25946F-63AC-42D6-8D55-01CF6A99025B";
paths = (
{
closed = 1;
nodes = (
"485 0 LINE",
"485 198 LINE",
"295 198 LINE",
"485 700 LINE",
"20 700 LINE",
"20 502 LINE",
"215 502 LINE",
"17 0 LINE"
);
}
);
width = 504;
}
);
unicode = 005A;
},
{
color = 1;
glyphname = a;
lastChange = "2016-10-17 07:22:10 +0000";
layers = (
{
layerId = "262880E7-CFE1-4BDA-902E-E24798F3240A";
paths = (
{
closed = 1;
nodes = (
"374 -7 OFFCURVE",
"433 56 OFFCURVE",
"433 156 CURVE SMOOTH",
"433 344 LINE SMOOTH",
"433 444 OFFCURVE",
"374 507 OFFCURVE",
"278 507 CURVE SMOOTH",
"181 507 OFFCURVE",
"118 446 OFFCURVE",
"118 346 CURVE SMOOTH",
"118 154 LINE SMOOTH",
"118 54 OFFCURVE",
"181 -7 OFFCURVE",
"278 -7 CURVE SMOOTH"
);
},
{
closed = 1;
nodes = (
"192 15 OFFCURVE",
"140 68 OFFCURVE",
"140 154 CURVE SMOOTH",
"140 346 LINE SMOOTH",
"140 432 OFFCURVE",
"194 486 OFFCURVE",
"279 486 CURVE SMOOTH",
"364 486 OFFCURVE",
"418 432 OFFCURVE",
"418 346 CURVE SMOOTH",
"418 154 LINE SMOOTH",
"418 68 OFFCURVE",
"366 15 OFFCURVE",
"279 15 CURVE SMOOTH"
);
},
{
closed = 1;
nodes = (
"440 0 LINE",
"440 500 LINE",
"418 500 LINE",
"418 0 LINE"
);
}
);
width = 574;
},
{
layerId = "4F25946F-63AC-42D6-8D55-01CF6A99025B";
paths = (
{
closed = 1;
nodes = (
"326 -5 OFFCURVE",
"406 88 OFFCURVE",
"406 240 CURVE SMOOTH",
"406 254 LINE SMOOTH",
"406 411 OFFCURVE",
"326 504 OFFCURVE",
"196 504 CURVE",
"91 504 OFFCURVE",
"27 415 OFFCURVE",
"27 318 CURVE SMOOTH",
"27 160 LINE SMOOTH",
"27 59 OFFCURVE",
"91 -3 OFFCURVE",
"196 -4 CURVE SMOOTH"
);
},
{
closed = 1;
nodes = (
"252 165 OFFCURVE",
"235 181 OFFCURVE",
"235 206 CURVE SMOOTH",
"235 298 LINE SMOOTH",
"235 323 OFFCURVE",
"252 339 OFFCURVE",
"278 339 CURVE SMOOTH",
"304 339 OFFCURVE",
"322 323 OFFCURVE",
"322 298 CURVE SMOOTH",
"322 206 LINE SMOOTH",
"322 181 OFFCURVE",
"304 165 OFFCURVE",
"278 165 CURVE SMOOTH"
);
},
{
closed = 1;
nodes = (
"529 0 LINE",
"529 500 LINE",
"322 500 LINE",
"322 0 LINE"
);
}
);
width = 571;
},
{
associatedMasterId = "4F25946F-63AC-42D6-8D55-01CF6A99025B";
layerId = "47FC566B-2B97-4943-A9EB-638501BAD42D";
name = "DemiBold{119,100}";
paths = (
{
closed = 1;
nodes = (
"348 -6 OFFCURVE",
"419 83 OFFCURVE",
"419 171 CURVE SMOOTH",
"419 336 LINE SMOOTH",
"419 416 OFFCURVE",
"348 505 OFFCURVE",
"234 505 CURVE SMOOTH",
"133 505 OFFCURVE",
"69 447 OFFCURVE",
"69 348 CURVE SMOOTH",
"69 157 LINE SMOOTH",
"69 57 OFFCURVE",
"133 -5 OFFCURVE",
"234 -5 CURVE SMOOTH"
);
},
{
closed = 1;
nodes = (
"224 95 OFFCURVE",
"191 129 OFFCURVE",
"191 182 CURVE SMOOTH",
"191 320 LINE SMOOTH",
"191 374 OFFCURVE",
"225 407 OFFCURVE",
"278 407 CURVE SMOOTH",
"332 407 OFFCURVE",
"367 374 OFFCURVE",
"367 320 CURVE SMOOTH",
"367 182 LINE SMOOTH",
"367 129 OFFCURVE",
"333 95 OFFCURVE",
"278 95 CURVE SMOOTH"
);
},
{
closed = 1;
nodes = (
"488 0 LINE",
"488 500 LINE",
"367 500 LINE",
"367 0 LINE"
);
}
);
width = 572;
visible = 1;
}
);
unicode = 0061;
},
{
color = 1;
glyphname = b;
lastChange = "2016-10-17 07:24:16 +0000";
layers = (
{
layerId = "262880E7-CFE1-4BDA-902E-E24798F3240A";
paths = (
{
closed = 1;
nodes = (
"156 0 LINE",
"156 700 LINE",
"134 700 LINE",
"134 0 LINE"
);
},
{
closed = 1;
nodes = (
"396 -7 OFFCURVE",
"456 54 OFFCURVE",
"456 154 CURVE SMOOTH",
"456 346 LINE SMOOTH",
"456 446 OFFCURVE",
"396 507 OFFCURVE",
"298 507 CURVE SMOOTH",
"200 507 OFFCURVE",
"136 444 OFFCURVE",
"136 344 CURVE SMOOTH",
"136 156 LINE SMOOTH",
"136 56 OFFCURVE",
"200 -7 OFFCURVE",
"298 -7 CURVE SMOOTH"
);
},
{
closed = 1;
nodes = (
"209 15 OFFCURVE",
"156 68 OFFCURVE",
"156 154 CURVE SMOOTH",
"156 346 LINE SMOOTH",
"156 433 OFFCURVE",
"209 486 OFFCURVE",
"295 486 CURVE SMOOTH",
"381 486 OFFCURVE",
"434 433 OFFCURVE",
"434 346 CURVE SMOOTH",
"434 154 LINE SMOOTH",
"434 68 OFFCURVE",
"381 15 OFFCURVE",
"295 15 CURVE SMOOTH"
);
}
);
width = 575;
},
{
layerId = "4F25946F-63AC-42D6-8D55-01CF6A99025B";
paths = (
{
closed = 1;
nodes = (
"249 0 LINE",
"249 700 LINE",
"42 700 LINE",
"42 0 LINE"
);
},
{
closed = 1;
nodes = (
"480 -3 OFFCURVE",
"544 59 OFFCURVE",
"544 160 CURVE SMOOTH",
"544 318 LINE SMOOTH",
"544 415 OFFCURVE",
"480 504 OFFCURVE",
"375 504 CURVE",
"245 504 OFFCURVE",
"165 411 OFFCURVE",
"165 254 CURVE SMOOTH",
"165 240 LINE SMOOTH",
"165 88 OFFCURVE",
"245 -5 OFFCURVE",
"375 -4 CURVE SMOOTH"
);
},
{
closed = 1;
nodes = (
"267 165 OFFCURVE",
"249 181 OFFCURVE",
"249 206 CURVE SMOOTH",
"249 298 LINE SMOOTH",
"249 323 OFFCURVE",
"267 339 OFFCURVE",
"293 339 CURVE SMOOTH",
"319 339 OFFCURVE",
"336 323 OFFCURVE",
"336 298 CURVE SMOOTH",
"336 206 LINE SMOOTH",
"336 181 OFFCURVE",
"319 165 OFFCURVE",
"293 165 CURVE SMOOTH"
);
}
);
width = 571;
},
{
associatedMasterId = "4F25946F-63AC-42D6-8D55-01CF6A99025B";
layerId = "93BAF2E2-22D9-4221-A5AC-BC4294365A74";
name = "DemiBold {119,100}";
paths = (
{
closed = 1;
nodes = (
"197 -1 LINE",
"197 700 LINE",
"77 700 LINE",
"77 -1 LINE"
);
},
{
closed = 1;
nodes = (
"426 -6 OFFCURVE",
"494 57 OFFCURVE",
"494 157 CURVE SMOOTH",
"494 348 LINE SMOOTH",
"494 447 OFFCURVE",
"427 507 OFFCURVE",
"320 507 CURVE SMOOTH",
"189 507 OFFCURVE",
"129 416 OFFCURVE",
"129 301 CURVE SMOOTH",
"129 196 LINE SMOOTH",
"129 72 OFFCURVE",
"199 -6 OFFCURVE",
"319 -6 CURVE SMOOTH"
);
},
{
closed = 1;
nodes = (
"230 95 OFFCURVE",
"197 128 OFFCURVE",
"197 182 CURVE SMOOTH",
"197 320 LINE SMOOTH",
"197 374 OFFCURVE",
"230 407 OFFCURVE",
"285 407 CURVE SMOOTH",
"340 407 OFFCURVE",
"373 374 OFFCURVE",
"373 320 CURVE SMOOTH",
"373 182 LINE SMOOTH",
"373 128 OFFCURVE",
"340 95 OFFCURVE",
"285 95 CURVE SMOOTH"
);
}
);
width = 571;
visible = 1;
}
);
unicode = 0062;
},
{
color = 1;
glyphname = c;
lastChange = "2016-10-17 07:50:45 +0000";
layers = (
{
layerId = "262880E7-CFE1-4BDA-902E-E24798F3240A";
paths = (
{
closed = 1;
nodes = (
"378 -5 OFFCURVE",
"440 54 OFFCURVE",
"440 154 CURVE SMOOTH",
"440 157 LINE",
"418 157 LINE",
"418 154 LINE SMOOTH",
"418 68 OFFCURVE",
"366 15 OFFCURVE",
"279 15 CURVE SMOOTH",
"192 15 OFFCURVE",
"140 68 OFFCURVE",
"140 154 CURVE SMOOTH",
"140 346 LINE SMOOTH",
"140 433 OFFCURVE",
"194 486 OFFCURVE",
"279 486 CURVE SMOOTH",
"364 486 OFFCURVE",
"418 433 OFFCURVE",
"418 346 CURVE SMOOTH",
"418 344 LINE",
"440 344 LINE",
"440 346 LINE SMOOTH",
"440 446 OFFCURVE",
"378 505 OFFCURVE",
"279 505 CURVE SMOOTH",
"180 505 OFFCURVE",
"118 446 OFFCURVE",
"118 346 CURVE SMOOTH",
"118 154 LINE SMOOTH",
"118 54 OFFCURVE",
"180 -5 OFFCURVE",
"279 -5 CURVE SMOOTH"
);
}
);
width = 534;
},
{
layerId = "4F25946F-63AC-42D6-8D55-01CF6A99025B";
paths = (
{
closed = 1;
nodes = (
"419 -3 OFFCURVE",
"514 81 OFFCURVE",
"524 232 CURVE",
"524 234 LINE",
"313 234 LINE",
"313 207 LINE SMOOTH",
"313 182 OFFCURVE",
"295 166 OFFCURVE",
"269 166 CURVE SMOOTH",
"243 166 OFFCURVE",
"226 182 OFFCURVE",
"226 207 CURVE",
"226 297 LINE",
"226 322 OFFCURVE",
"243 338 OFFCURVE",
"269 338 CURVE SMOOTH",
"295 338 OFFCURVE",
"313 322 OFFCURVE",
"313 297 CURVE",
"313 276 LINE",
"524 276 LINE",
"524 278 LINE",
"522 422 OFFCURVE",
"427 503 OFFCURVE",
"268 503 CURVE SMOOTH",
"108 503 OFFCURVE",
"14 414 OFFCURVE",
"14 255 CURVE SMOOTH",
"14 248 LINE SMOOTH",
"14 87 OFFCURVE",
"108 -3 OFFCURVE",
"267 -3 CURVE SMOOTH"
);
}
);
width = 537;
},
{
associatedMasterId = "4F25946F-63AC-42D6-8D55-01CF6A99025B";
layerId = "7B6958F8-F0D4-40F0-82E9-17D44A566858";
name = "DemiBold{119,100}";
paths = (
{
closed = 1;
nodes = (
"407 -9 OFFCURVE",
"479 60 OFFCURVE",
"484 195 CURVE SMOOTH",
"484 198 LINE",
"361 198 LINE",
"361 198 LINE SMOOTH",
"361 146 OFFCURVE",
"326 105 OFFCURVE",
"273 105 CURVE SMOOTH",
"220 105 OFFCURVE",
"185 146 OFFCURVE",
"185 198 CURVE SMOOTH",
"185 310 LINE SMOOTH",
"185 362 OFFCURVE",
"220 400 OFFCURVE",
"273 400 CURVE SMOOTH",
"326 400 OFFCURVE",
"361 362 OFFCURVE",
"361 310 CURVE SMOOTH",
"361 308 LINE",
"484 308 LINE",
"484 310 LINE SMOOTH",
"483 441 OFFCURVE",
"411 509 OFFCURVE",
"272 509 CURVE SMOOTH",
"133 509 OFFCURVE",
"62 437 OFFCURVE",
"62 298 CURVE SMOOTH",
"62 204 LINE SMOOTH",
"62 63 OFFCURVE",
"133 -9 OFFCURVE",
"272 -9 CURVE SMOOTH"
);
}
);
width = 559;
}
);
unicode = 0063;
},
{
color = 1;
glyphname = e;
lastChange = "2016-10-17 07:37:33 +0000";
layers = (
{
layerId = "262880E7-CFE1-4BDA-902E-E24798F3240A";
paths = (
{
closed = 1;
nodes = (
"378 -5 OFFCURVE",
"440 54 OFFCURVE",
"440 154 CURVE SMOOTH",
"440 158 LINE",
"418 158 LINE",
"418 154 LINE SMOOTH",
"418 68 OFFCURVE",
"366 15 OFFCURVE",
"279 15 CURVE SMOOTH",
"192 15 OFFCURVE",
"140 68 OFFCURVE",
"140 154 CURVE SMOOTH",
"140 346 LINE SMOOTH",
"140 433 OFFCURVE",
"194 486 OFFCURVE",
"279 486 CURVE SMOOTH",
"364 486 OFFCURVE",
"418 433 OFFCURVE",
"418 346 CURVE SMOOTH",
"418 261 LINE",
"135 261 LINE",
"135 240 LINE",
"440 240 LINE",
"440 346 LINE SMOOTH",
"440 446 OFFCURVE",
"378 505 OFFCURVE",
"279 505 CURVE SMOOTH",
"180 505 OFFCURVE",
"118 446 OFFCURVE",
"118 346 CURVE SMOOTH",
"118 154 LINE SMOOTH",
"118 54 OFFCURVE",
"180 -5 OFFCURVE",
"279 -5 CURVE SMOOTH"
);
}
);
width = 552;
},
{
layerId = "4F25946F-63AC-42D6-8D55-01CF6A99025B";
paths = (
{
closed = 1;
nodes = (
"418 -4 OFFCURVE",
"513 66 OFFCURVE",
"522 193 CURVE",
"522 193 LINE",
"322 193 LINE",
"322 193 LINE",
"318 164 OFFCURVE",
"294 152 OFFCURVE",
"268 152 CURVE SMOOTH",
"242 152 OFFCURVE",
"225 168 OFFCURVE",
"225 193 CURVE SMOOTH",
"225 318 LINE SMOOTH",
"225 344 OFFCURVE",
"242 359 OFFCURVE",
"268 359 CURVE SMOOTH",
"294 359 OFFCURVE",
"311 344 OFFCURVE",
"311 318 CURVE SMOOTH",
"311 299 LINE",
"208 299 LINE",
"208 231 LINE",
"522 231 LINE",
"522 262 LINE",
"520 417 OFFCURVE",
"426 504 OFFCURVE",
"267 504 CURVE SMOOTH",
"107 504 OFFCURVE",
"13 415 OFFCURVE",
"13 256 CURVE SMOOTH",
"13 247 LINE SMOOTH",
"13 86 OFFCURVE",
"107 -4 OFFCURVE",
"266 -4 CURVE SMOOTH"
);
}
);
width = 536;
},
{
associatedMasterId = "4F25946F-63AC-42D6-8D55-01CF6A99025B";
layerId = "A8631AE8-6F64-4109-B373-5711B024CF55";
name = "DemiBold {119,100}";
paths = (
{
closed = 1;
nodes = (
"400 -7 OFFCURVE",
"484 56 OFFCURVE",
"484 160 CURVE SMOOTH",
"484 161 LINE",
"361 162 LINE",
"361 158 LINE SMOOTH",
"361 123 OFFCURVE",
"324 101 OFFCURVE",
"273 101 CURVE SMOOTH",
"219 101 OFFCURVE",
"186 134 OFFCURVE",
"186 188 CURVE SMOOTH",
"186 319 LINE SMOOTH",
"186 373 OFFCURVE",
"219 406 OFFCURVE",
"273 406 CURVE SMOOTH",
"328 406 OFFCURVE",
"361 373 OFFCURVE",
"361 319 CURVE SMOOTH",
"361 290 LINE",
"174 290 LINE",
"174 211 LINE",
"484 211 LINE",
"484 301 LINE SMOOTH",
"484 429 OFFCURVE",
"404 507 OFFCURVE",
"273 507 CURVE SMOOTH",
"142 507 OFFCURVE",
"62 428 OFFCURVE",
"62 298 CURVE SMOOTH",
"62 204 LINE SMOOTH",
"62 73 OFFCURVE",
"142 -7 OFFCURVE",
"272 -7 CURVE SMOOTH"
);
}
);
width = 543;
visible = 1;
}
);
unicode = 0065;
},
{
color = 1;
glyphname = f;
lastChange = "2016-10-17 05:50:43 +0000";
layers = (
{
layerId = "262880E7-CFE1-4BDA-902E-E24798F3240A";
paths = (
{
closed = 1;
nodes = (
"162 -1 LINE",
"162 550 LINE SMOOTH",
"162 637 OFFCURVE",
"215 690 OFFCURVE",
"301 690 CURVE",
"301 711 LINE",
"201 711 OFFCURVE",
"140 650 OFFCURVE",
"140 550 CURVE SMOOTH",
"140 -1 LINE"
);
},
{
closed = 1;
nodes = (
"271 479 LINE",
"271 500 LINE",
"71 500 LINE",
"71 479 LINE"
);
}
);
width = 324;
},
{
layerId = "4F25946F-63AC-42D6-8D55-01CF6A99025B";
paths = (
{
closed = 1;
nodes = (
"245 8 LINE",
"245 525 LINE",
"245 545 OFFCURVE",
"267 551 OFFCURVE",
"289 551 CURVE",
"289 693 LINE",
"149 700 OFFCURVE",
"60 690 OFFCURVE",
"60 549 CURVE",
"60 8 LINE"
);
},
{
closed = 1;
nodes = (
"307 326 LINE",
"307 500 LINE",
"14 500 LINE",
"14 326 LINE"
);
}
);
width = 313;
},
{
associatedMasterId = "4F25946F-63AC-42D6-8D55-01CF6A99025B";
layerId = "AF0A8C32-09C6-404E-AFE0-A8C575E5B58A";
name = "Medium{91,100}";
paths = (
{
closed = 1;
nodes = (
"194 2 LINE",
"194 550 LINE SMOOTH",
"194 616 OFFCURVE",
"240 630 OFFCURVE",
"295 630 CURVE",
"296 700 LINE",
"181 703 OFFCURVE",
"110 665 OFFCURVE",
"110 550 CURVE SMOOTH",
"110 2 LINE"
);
},
{
closed = 1;
nodes = (
"285 421 LINE",
"285 500 LINE",
"49 500 LINE",
"49 421 LINE"
);
}
);
width = 320;
}
);
unicode = 0066;
},
{
color = 1;
glyphname = g;
lastChange = "2016-10-17 05:51:20 +0000";
layers = (
{
layerId = "262880E7-CFE1-4BDA-902E-E24798F3240A";
paths = (
{
closed = 1;
nodes = (
"374 -5 OFFCURVE",
"433 56 OFFCURVE",
"433 156 CURVE SMOOTH",
"433 344 LINE SMOOTH",
"433 444 OFFCURVE",
"374 505 OFFCURVE",
"276 505 CURVE SMOOTH",
"178 505 OFFCURVE",
"118 445 OFFCURVE",
"118 346 CURVE SMOOTH",
"118 154 LINE SMOOTH",
"118 55 OFFCURVE",
"178 -5 OFFCURVE",
"277 -5 CURVE"
);
},
{
closed = 1;
nodes = (
"193 17 OFFCURVE",
"140 70 OFFCURVE",
"140 156 CURVE SMOOTH",
"140 344 LINE SMOOTH",
"140 431 OFFCURVE",
"193 484 OFFCURVE",
"279 484 CURVE SMOOTH",
"365 484 OFFCURVE",
"418 431 OFFCURVE",
"418 344 CURVE SMOOTH",
"418 156 LINE SMOOTH",
"418 70 OFFCURVE",
"365 17 OFFCURVE",
"279 17 CURVE SMOOTH"
);
},
{
closed = 1;
nodes = (
"367 -206 OFFCURVE",
"440 -140 OFFCURVE",
"440 0 CURVE SMOOTH",
"440 500 LINE",
"418 500 LINE",
"418 0 LINE SMOOTH",
"418 -126 OFFCURVE",
"352 -185 OFFCURVE",
"233 -181 CURVE",
"233 -202 LINE"
);
}
);
width = 574;
},
{
layerId = "4F25946F-63AC-42D6-8D55-01CF6A99025B";
paths = (
{
closed = 1;
nodes = (
"326 -5 OFFCURVE",
"406 88 OFFCURVE",
"406 240 CURVE SMOOTH",
"406 254 LINE SMOOTH",
"406 411 OFFCURVE",
"326 504 OFFCURVE",
"196 504 CURVE",
"91 504 OFFCURVE",
"27 447 OFFCURVE",
"27 350 CURVE SMOOTH",
"27 160 LINE SMOOTH",
"27 59 OFFCURVE",
"91 -3 OFFCURVE",
"196 -4 CURVE SMOOTH"
);
},
{
closed = 1;
nodes = (
"246 165 OFFCURVE",
"229 181 OFFCURVE",
"229 206 CURVE SMOOTH",
"229 298 LINE SMOOTH",
"229 323 OFFCURVE",
"246 339 OFFCURVE",
"272 339 CURVE SMOOTH",
"298 339 OFFCURVE",
"316 323 OFFCURVE",
"316 298 CURVE SMOOTH",
"316 206 LINE SMOOTH",
"316 181 OFFCURVE",
"298 165 OFFCURVE",
"272 165 CURVE SMOOTH"
);
},
{
closed = 1;
nodes = (
"461 -226 OFFCURVE",
"528 -115 OFFCURVE",
"528 34 CURVE SMOOTH",
"528 500 LINE",
"316 500 LINE",
"316 34 LINE SMOOTH",
"316 -14 OFFCURVE",
"299 -44 OFFCURVE",
"155 -36 CURVE",
"155 -207 LINE"
);
}
);
width = 570;
},
{
associatedMasterId = "4F25946F-63AC-42D6-8D55-01CF6A99025B";
layerId = "B6BF2724-269E-425D-BD22-36C93A6CFDCE";
name = "Medium {91, 100}";
paths = (
{
closed = 1;
nodes = (
"372 -6 OFFCURVE",
"440 74 OFFCURVE",
"440 192 CURVE SMOOTH",
"440 292 LINE SMOOTH",
"440 375 OFFCURVE",
"402 504 OFFCURVE",
"260 504 CURVE SMOOTH",
"163 504 OFFCURVE",
"83 445 OFFCURVE",
"83 348 CURVE SMOOTH",
"83 156 LINE SMOOTH",
"83 55 OFFCURVE",
"158 -4 OFFCURVE",
"256 -5 CURVE"
);
},
{
closed = 1;
nodes = (
"213 72 OFFCURVE",
"174 111 OFFCURVE",
"174 174 CURVE SMOOTH",
"174 326 LINE SMOOTH",
"174 389 OFFCURVE",
"213 428 OFFCURVE",
"277 428 CURVE SMOOTH",
"340 428 OFFCURVE",
"380 389 OFFCURVE",
"380 326 CURVE SMOOTH",
"380 174 LINE SMOOTH",
"380 111 OFFCURVE",
"340 72 OFFCURVE",
"277 72 CURVE SMOOTH"
);
},
{
closed = 1;
nodes = (
"410 -217 OFFCURVE",
"474 -137 OFFCURVE",
"474 -18 CURVE SMOOTH",
"474 500 LINE",
"380 500 LINE",
"380 -18 LINE SMOOTH",
"380 -90 OFFCURVE",
"340 -135 OFFCURVE",
"220 -131 CURVE",
"220 -209 LINE"
);
}
);
width = 573;
}
);
unicode = 0067;
},
{
color = 1;
glyphname = h;
lastChange = "2016-10-17 05:51:40 +0000";
layers = (
{
layerId = "262880E7-CFE1-4BDA-902E-E24798F3240A";
paths = (
{
closed = 1;
nodes = (
"456 0 LINE",
"456 346 LINE SMOOTH",
"456 446 OFFCURVE",
"394 505 OFFCURVE",
"297 505 CURVE SMOOTH",
"199 505 OFFCURVE",
"140 444 OFFCURVE",
"140 344 CURVE",
"156 344 LINE",
"156 431 OFFCURVE",
"210 484 OFFCURVE",
"295 484 CURVE SMOOTH",
"380 484 OFFCURVE",
"434 431 OFFCURVE",
"434 344 CURVE SMOOTH",
"434 0 LINE"
);
},
{
closed = 1;
nodes = (
"156 0 LINE",
"156 700 LINE",
"134 700 LINE",
"134 0 LINE"
);
}
);
width = 582;
},
{
layerId = "4F25946F-63AC-42D6-8D55-01CF6A99025B";
paths = (
{
closed = 1;
nodes = (
"544 0 LINE",
"544 350 LINE SMOOTH",
"544 441 OFFCURVE",
"493 510 OFFCURVE",
"377 510 CURVE SMOOTH",
"228 510 OFFCURVE",
"185 396 OFFCURVE",
"185 294 CURVE",
"250 294 LINE",
"250 321 OFFCURVE",
"267 339 OFFCURVE",
"293 339 CURVE SMOOTH",
"319 339 OFFCURVE",
"337 321 OFFCURVE",
"337 294 CURVE SMOOTH",
"337 0 LINE"
);
},
{
closed = 1;
nodes = (
"250 0 LINE",
"250 700 LINE",
"42 700 LINE",
"42 0 LINE"
);
}
);
width = 579;
},
{
associatedMasterId = "4F25946F-63AC-42D6-8D55-01CF6A99025B";
layerId = "6DA8EE20-322F-490D-912C-EA80E03ECB77";
name = "Medium {91, 100}";
paths = (
{
closed = 1;
nodes = (
"490 0 LINE",
"490 348 LINE SMOOTH",
"490 444 OFFCURVE",
"430 507 OFFCURVE",
"322 507 CURVE SMOOTH",
"209 507 OFFCURVE",
"148 437 OFFCURVE",
"148 326 CURVE",
"192 326 LINE",
"192 390 OFFCURVE",
"232 430 OFFCURVE",
"294 430 CURVE SMOOTH",
"357 430 OFFCURVE",
"397 390 OFFCURVE",
"397 326 CURVE SMOOTH",
"397 0 LINE"
);
},
{
closed = 1;
nodes = (
"192 0 LINE",
"192 700 LINE",
"99 700 LINE",
"99 0 LINE"
);
}
);
width = 582;
}
);
unicode = 0068;
},
{
color = 1;
glyphname = i;
lastChange = "2016-10-17 05:23:47 +0000";
layers = (
{
layerId = "262880E7-CFE1-4BDA-902E-E24798F3240A";
paths = (
{
closed = 1;
nodes = (
"156 -1 LINE",
"156 500 LINE",
"134 500 LINE",
"134 -1 LINE"
);
},
{
closed = 1;
nodes = (
"162 669 OFFCURVE",
"176 683 OFFCURVE",
"176 700 CURVE SMOOTH",
"176 716 OFFCURVE",
"162 730 OFFCURVE",
"145 730 CURVE SMOOTH",
"128 730 OFFCURVE",
"114 716 OFFCURVE",
"114 700 CURVE SMOOTH",
"114 683 OFFCURVE",
"128 669 OFFCURVE",
"145 669 CURVE SMOOTH"
);
}
);
width = 290;
},
{
layerId = "4F25946F-63AC-42D6-8D55-01CF6A99025B";
paths = (
{
closed = 1;
nodes = (
"250 0 LINE",
"250 500 LINE",
"42 500 LINE",
"42 0 LINE"
);
},
{
closed = 1;
nodes = (
"207 547 OFFCURVE",
"260 591 OFFCURVE",
"260 656 CURVE",
"260 715 OFFCURVE",
"207 763 OFFCURVE",
"146 763 CURVE SMOOTH",
"85 763 OFFCURVE",
"32 715 OFFCURVE",
"32 656 CURVE SMOOTH",
"32 595 OFFCURVE",
"83 547 OFFCURVE",
"146 547 CURVE SMOOTH"
);
}
);
width = 292;
}
);
unicode = 0069;
},
{
color = 1;
glyphname = j;
lastChange = "2016-10-17 05:23:47 +0000";
layers = (
{
layerId = "262880E7-CFE1-4BDA-902E-E24798F3240A";
paths = (
{
closed = 1;
nodes = (
"104 -211 OFFCURVE",
"156 -159 OFFCURVE",
"156 -74 CURVE SMOOTH",
"156 500 LINE",
"134 500 LINE",
"134 -74 LINE SMOOTH",
"134 -146 OFFCURVE",
"91 -190 OFFCURVE",
"20 -190 CURVE",
"20 -211 LINE"
);
},
{
closed = 1;
nodes = (
"164 669 OFFCURVE",
"176 681 OFFCURVE",
"176 700 CURVE SMOOTH",
"176 719 OFFCURVE",
"164 730 OFFCURVE",
"145 730 CURVE SMOOTH",
"126 730 OFFCURVE",
"114 719 OFFCURVE",
"114 700 CURVE SMOOTH",
"114 681 OFFCURVE",
"126 669 OFFCURVE",
"145 669 CURVE SMOOTH"
);
}
);
width = 290;
},
{
layerId = "4F25946F-63AC-42D6-8D55-01CF6A99025B";
paths = (
{
closed = 1;
nodes = (
"138 -236 OFFCURVE",
"251 -200 OFFCURVE",
"250 -39 CURVE",
"250 500 LINE",
"42 500 LINE",
"42 -8 LINE",
"42 -40 OFFCURVE",
"-12 -39 OFFCURVE",
"-45 -26 CURVE",
"-55 -201 LINE"
);
},
{
closed = 1;
nodes = (
"208 547 OFFCURVE",
"260 595 OFFCURVE",
"260 656 CURVE",
"260 715 OFFCURVE",
"208 763 OFFCURVE",
"146 763 CURVE SMOOTH",
"85 763 OFFCURVE",
"32 715 OFFCURVE",
"32 656 CURVE SMOOTH",
"32 595 OFFCURVE",
"83 547 OFFCURVE",
"146 547 CURVE SMOOTH"
);
}
);
width = 292;
}
);
unicode = 006A;
},
{
color = 1;
glyphname = k;
lastChange = "2016-10-17 05:52:07 +0000";
layers = (
{
layerId = "262880E7-CFE1-4BDA-902E-E24798F3240A";
paths = (
{
closed = 1;
nodes = (
"413 0 LINE",
"167 250 LINE",
"415 500 LINE",
"384 500 LINE",
"135 250 LINE",
"382 0 LINE"
);
},
{
closed = 1;
nodes = (
"155 1 LINE",
"156 700 LINE",
"134 700 LINE",
"133 1 LINE"
);
}
);
width = 475;
},
{
layerId = "4F25946F-63AC-42D6-8D55-01CF6A99025B";
paths = (
{
closed = 1;
nodes = (
"552 0 LINE",
"370 250 LINE",
"562 500 LINE",
"330 500 LINE",
"186 256 LINE",
"316 0 LINE"
);
},
{
closed = 1;
nodes = (
"230 0 LINE",
"231 700 LINE",
"43 700 LINE",
"42 0 LINE"
);
}
);
width = 554;
},
{
associatedMasterId = "4F25946F-63AC-42D6-8D55-01CF6A99025B";
layerId = "67D1648E-BAA1-4D62-B90C-A94E0FCB7E5A";
name = "DemiBold{119,100}";
paths = (
{
closed = 1;
nodes = (
"500 0 LINE",
"298 250 LINE",
"515 500 LINE",
"365 500 LINE",
"157 250 LINE",
"349 0 LINE"
);
},
{
closed = 1;
nodes = (
"205 0 LINE",
"206 700 LINE",
"85 700 LINE",
"84 0 LINE"
);
}
);
width = 538;
}
);
unicode = 006B;
},
{
color = 1;
glyphname = l;
lastChange = "2016-10-17 05:23:47 +0000";
layers = (
{
layerId = "262880E7-CFE1-4BDA-902E-E24798F3240A";
paths = (
{
closed = 1;
nodes = (
"156 -1 LINE",
"156 700 LINE",
"134 700 LINE",
"134 -1 LINE"
);
}
);
width = 290;
},
{
layerId = "4F25946F-63AC-42D6-8D55-01CF6A99025B";
paths = (
{
closed = 1;
nodes = (
"250 0 LINE",
"250 700 LINE",
"42 700 LINE",
"42 0 LINE"
);
}
);
width = 292;
}
);
unicode = 006C;
},
{
color = 1;
glyphname = m;
lastChange = "2016-10-17 05:52:20 +0000";
layers = (
{
layerId = "262880E7-CFE1-4BDA-902E-E24798F3240A";
paths = (
{
closed = 1;
nodes = (
"156 0 LINE",
"156 500 LINE",
"134 500 LINE",
"134 0 LINE"
);
},
{
closed = 1;
nodes = (
"446 0 LINE",
"446 345 LINE",
"446 445 OFFCURVE",
"385 506 OFFCURVE",
"291 506 CURVE SMOOTH",
"196 506 OFFCURVE",
"141 445 OFFCURVE",
"141 345 CURVE",
"156 345 LINE",
"156 432 OFFCURVE",
"207 485 OFFCURVE",
"290 485 CURVE SMOOTH",
"373 485 OFFCURVE",
"424 432 OFFCURVE",
"424 345 CURVE",
"424 0 LINE"
);
},
{
closed = 1;
nodes = (
"736 0 LINE",
"736 345 LINE SMOOTH",
"736 445 OFFCURVE",
"675 506 OFFCURVE",
"581 506 CURVE SMOOTH",
"486 506 OFFCURVE",
"431 445 OFFCURVE",
"431 345 CURVE",
"446 345 LINE",
"446 432 OFFCURVE",
"497 485 OFFCURVE",
"580 485 CURVE SMOOTH",
"663 485 OFFCURVE",
"714 432 OFFCURVE",
"714 345 CURVE SMOOTH",
"714 0 LINE"
);
}
);
width = 862;
},
{
layerId = "4F25946F-63AC-42D6-8D55-01CF6A99025B";
paths = (
{
closed = 1;
nodes = (
"250 0 LINE",
"250 500 LINE",
"42 500 LINE",
"42 0 LINE"
);
},
{
closed = 1;
nodes = (
"544 0 LINE",
"544 350 LINE SMOOTH",
"544 441 OFFCURVE",
"499 502 OFFCURVE",
"382 502 CURVE",
"234 502 OFFCURVE",
"185 387 OFFCURVE",
"185 286 CURVE",
"250 294 LINE",
"250 321 OFFCURVE",
"267 339 OFFCURVE",
"293 339 CURVE SMOOTH",
"319 339 OFFCURVE",
"337 321 OFFCURVE",
"337 294 CURVE SMOOTH",
"337 0 LINE"
);
},
{
closed = 1;
nodes = (
"838 0 LINE",
"838 350 LINE SMOOTH",
"838 441 OFFCURVE",
"790 502 OFFCURVE",
"672 502 CURVE",
"528 502 OFFCURVE",
"479 387 OFFCURVE",
"479 286 CURVE",
"544 294 LINE",
"544 321 OFFCURVE",
"561 339 OFFCURVE",
"587 339 CURVE SMOOTH",
"613 339 OFFCURVE",
"631 321 OFFCURVE",
"631 294 CURVE SMOOTH",
"631 0 LINE"
);
}
);
width = 873;
},
{
associatedMasterId = "4F25946F-63AC-42D6-8D55-01CF6A99025B";
layerId = "F5ED04A7-6D5C-4CB3-8E75-4B337E8B4478";
name = "Medium {91, 100}";
paths = (
{
closed = 1;
nodes = (
"191 0 LINE",
"191 500 LINE",
"99 500 LINE",
"99 0 LINE"
);
},
{
closed = 1;
nodes = (
"475 0 LINE",
"475 350 LINE SMOOTH",
"475 447 OFFCURVE",
"423 510 OFFCURVE",
"322 510 CURVE SMOOTH",
"210 510 OFFCURVE",
"153 440 OFFCURVE",
"153 336 CURVE",
"191 336 LINE",
"191 396 OFFCURVE",
"228 433 OFFCURVE",
"287 433 CURVE SMOOTH",
"346 433 OFFCURVE",
"383 396 OFFCURVE",
"383 336 CURVE SMOOTH",
"383 0 LINE"
);
},
{
closed = 1;
nodes = (
"759 0 LINE",
"759 350 LINE SMOOTH",
"759 447 OFFCURVE",
"707 510 OFFCURVE",
"606 510 CURVE SMOOTH",
"494 510 OFFCURVE",
"437 440 OFFCURVE",
"437 336 CURVE",
"475 336 LINE",
"475 396 OFFCURVE",
"512 433 OFFCURVE",
"571 433 CURVE SMOOTH",
"630 433 OFFCURVE",
"667 396 OFFCURVE",
"667 336 CURVE SMOOTH",
"667 0 LINE"
);
}
);
width = 850;
}
);
unicode = 006D;
},
{
color = 1;
glyphname = n;
lastChange = "2016-10-17 05:52:30 +0000";
layers = (
{
layerId = "262880E7-CFE1-4BDA-902E-E24798F3240A";
paths = (
{
closed = 1;
nodes = (
"456 0 LINE",
"456 344 LINE SMOOTH",
"456 444 OFFCURVE",
"395 504 OFFCURVE",
"296 504 CURVE SMOOTH",
"200 504 OFFCURVE",
"141 443 OFFCURVE",
"141 343 CURVE",
"156 343 LINE",
"156 430 OFFCURVE",
"209 483 OFFCURVE",
"295 483 CURVE SMOOTH",
"381 483 OFFCURVE",
"434 430 OFFCURVE",
"434 343 CURVE SMOOTH",
"434 0 LINE"
);
},
{
closed = 1;
nodes = (
"156 0 LINE",
"156 496 LINE",
"134 496 LINE",
"134 0 LINE"
);
}
);
width = 581;
},
{
layerId = "4F25946F-63AC-42D6-8D55-01CF6A99025B";
paths = (
{
closed = 1;
nodes = (
"544 0 LINE",
"544 350 LINE SMOOTH",
"544 441 OFFCURVE",
"499 502 OFFCURVE",
"382 502 CURVE",
"234 502 OFFCURVE",
"185 387 OFFCURVE",
"185 286 CURVE",
"250 294 LINE",
"250 321 OFFCURVE",
"267 339 OFFCURVE",
"293 339 CURVE SMOOTH",
"319 339 OFFCURVE",
"337 321 OFFCURVE",
"337 294 CURVE SMOOTH",
"337 0 LINE"
);
},
{
closed = 1;
nodes = (
"250 0 LINE",
"250 500 LINE",
"42 500 LINE",
"42 0 LINE"
);
}
);
width = 580;
},
{
associatedMasterId = "4F25946F-63AC-42D6-8D55-01CF6A99025B";
layerId = "48EED9EC-BBC9-457D-A249-2E4341C899C3";
name = "Medium {91, 100}";
paths = (
{
closed = 1;
nodes = (
"490 0 LINE",
"490 346 LINE SMOOTH",
"490 443 OFFCURVE",
"429 506 OFFCURVE",
"325 506 CURVE SMOOTH",
"207 506 OFFCURVE",
"139 425 OFFCURVE",
"139 325 CURVE",
"192 325 LINE",
"192 389 OFFCURVE",
"231 429 OFFCURVE",
"294 429 CURVE SMOOTH",
"358 429 OFFCURVE",
"397 389 OFFCURVE",
"397 325 CURVE SMOOTH",
"397 0 LINE"
);
},
{
closed = 1;
nodes = (
"192 0 LINE",
"192 498 LINE",
"99 498 LINE",
"99 0 LINE"
);
}
);
width = 582;
}
);
unicode = 006E;
},
{
color = 1;
glyphname = o;
lastChange = "2016-10-17 07:56:32 +0000";
layers = (
{
layerId = "262880E7-CFE1-4BDA-902E-E24798F3240A";
paths = (
{
closed = 1;
nodes = (
"378 -5 OFFCURVE",
"439 56 OFFCURVE",
"439 156 CURVE SMOOTH",
"439 344 LINE SMOOTH",
"439 444 OFFCURVE",
"378 505 OFFCURVE",
"278 505 CURVE SMOOTH",
"178 505 OFFCURVE",
"117 444 OFFCURVE",
"117 344 CURVE SMOOTH",
"117 156 LINE SMOOTH",
"117 56 OFFCURVE",
"178 -5 OFFCURVE",
"278 -5 CURVE SMOOTH"
);
},
{
closed = 1;
nodes = (
"192 17 OFFCURVE",
"139 70 OFFCURVE",
"139 156 CURVE SMOOTH",
"139 344 LINE SMOOTH",
"139 431 OFFCURVE",
"192 484 OFFCURVE",
"278 484 CURVE SMOOTH",
"364 484 OFFCURVE",
"417 431 OFFCURVE",
"417 344 CURVE SMOOTH",
"417 156 LINE SMOOTH",
"417 70 OFFCURVE",
"364 17 OFFCURVE",
"278 17 CURVE SMOOTH"
);
}
);
width = 556;
},
{
layerId = "4F25946F-63AC-42D6-8D55-01CF6A99025B";
paths = (
{
closed = 1;
nodes = (
"428 -4 OFFCURVE",
"523 86 OFFCURVE",
"523 247 CURVE",
"523 256 LINE",
"521 415 OFFCURVE",
"426 504 OFFCURVE",
"267 504 CURVE",
"107 504 OFFCURVE",
"13 415 OFFCURVE",
"13 256 CURVE",
"13 247 LINE",
"14 86 OFFCURVE",
"108 -4 OFFCURVE",
"267 -4 CURVE SMOOTH"
);
},
{
closed = 1;
nodes = (
"241 163 OFFCURVE",
"224 179 OFFCURVE",
"224 204 CURVE SMOOTH",
"224 296 LINE SMOOTH",
"224 321 OFFCURVE",
"241 337 OFFCURVE",
"267 337 CURVE SMOOTH",
"293 337 OFFCURVE",
"311 321 OFFCURVE",
"311 296 CURVE SMOOTH",
"311 204 LINE SMOOTH",
"311 179 OFFCURVE",
"293 163 OFFCURVE",
"267 163 CURVE SMOOTH"
);
}
);
width = 536;
},
{
associatedMasterId = "4F25946F-63AC-42D6-8D55-01CF6A99025B";
layerId = "2DFAB8E9-CF9C-42C7-AA48-DE050B873B35";
name = "Demibold{119,100}";
paths = (
{
closed = 1;
nodes = (
"395 -7 OFFCURVE",
"474 70 OFFCURVE",
"474 195 CURVE SMOOTH",
"474 307 LINE SMOOTH",
"474 431 OFFCURVE",
"395 507 OFFCURVE",
"267 507 CURVE SMOOTH",
"139 507 OFFCURVE",
"61 431 OFFCURVE",
"61 307 CURVE SMOOTH",
"61 195 LINE SMOOTH",
"61 70 OFFCURVE",
"139 -7 OFFCURVE",
"267 -7 CURVE SMOOTH"
);
},
{
closed = 1;
nodes = (
"214 110 OFFCURVE",
"179 145 OFFCURVE",
"179 197 CURVE SMOOTH",
"179 305 LINE SMOOTH",
"179 357 OFFCURVE",
"214 392 OFFCURVE",
"267 392 CURVE SMOOTH",
"320 392 OFFCURVE",
"355 357 OFFCURVE",
"355 305 CURVE SMOOTH",
"355 197 LINE SMOOTH",
"355 145 OFFCURVE",
"320 110 OFFCURVE",
"267 110 CURVE SMOOTH"
);
}
);
width = 535;
}
);
unicode = 006F;
},
{
color = 1;
glyphname = p;
lastChange = "2016-10-17 05:23:47 +0000";
layers = (
{
layerId = "262880E7-CFE1-4BDA-902E-E24798F3240A";
paths = (
{
closed = 1;
nodes = (
"396 -7 OFFCURVE",
"456 54 OFFCURVE",
"456 154 CURVE SMOOTH",
"456 346 LINE SMOOTH",
"456 446 OFFCURVE",
"396 507 OFFCURVE",
"298 507 CURVE SMOOTH",
"200 507 OFFCURVE",
"136 444 OFFCURVE",
"136 344 CURVE SMOOTH",
"136 156 LINE SMOOTH",
"136 56 OFFCURVE",
"200 -7 OFFCURVE",
"298 -7 CURVE SMOOTH"
);
},
{
closed = 1;
nodes = (
"156 -200 LINE",
"156 500 LINE",
"134 500 LINE",
"134 -200 LINE"
);
},
{
closed = 1;
nodes = (
"209 14 OFFCURVE",
"156 67 OFFCURVE",
"156 154 CURVE SMOOTH",
"156 346 LINE SMOOTH",
"156 432 OFFCURVE",
"209 485 OFFCURVE",
"295 485 CURVE SMOOTH",
"381 485 OFFCURVE",
"434 432 OFFCURVE",
"434 346 CURVE SMOOTH",
"434 154 LINE SMOOTH",
"434 67 OFFCURVE",
"381 14 OFFCURVE",
"295 14 CURVE SMOOTH"
);
}
);
width = 574;
},
{
layerId = "4F25946F-63AC-42D6-8D55-01CF6A99025B";
paths = (
{
closed = 1;
nodes = (
"480 -4 OFFCURVE",
"544 52 OFFCURVE",
"544 157 CURVE SMOOTH",
"544 347 LINE SMOOTH",
"544 441 OFFCURVE",
"469 504 OFFCURVE",
"356 504 CURVE",
"161 504 OFFCURVE",
"145 242 OFFCURVE",
"145 231 CURVE SMOOTH",
"145 217 LINE SMOOTH",
"145 117 OFFCURVE",
"236 -12 OFFCURVE",
"384 -7 CURVE SMOOTH"
);
},
{
closed = 1;
nodes = (
"250 -200 LINE",
"250 502 LINE",
"42 502 LINE",
"42 -200 LINE"
);
},
{
closed = 1;
nodes = (
"267 158 OFFCURVE",
"250 174 OFFCURVE",
"250 199 CURVE SMOOTH",
"250 291 LINE SMOOTH",
"250 316 OFFCURVE",
"267 332 OFFCURVE",
"293 332 CURVE SMOOTH",
"319 332 OFFCURVE",
"337 316 OFFCURVE",
"337 291 CURVE SMOOTH",
"337 199 LINE SMOOTH",
"337 174 OFFCURVE",
"319 158 OFFCURVE",
"293 158 CURVE SMOOTH"
);
}
);
width = 570;
}
);
unicode = 0070;
},
{
color = 1;
glyphname = r;
lastChange = "2016-10-17 05:52:59 +0000";
layers = (
{
layerId = "262880E7-CFE1-4BDA-902E-E24798F3240A";
paths = (
{
closed = 1;
nodes = (
"156 331 LINE",
"156 418 OFFCURVE",
"206 483 OFFCURVE",
"288 483 CURVE SMOOTH",
"298 483 OFFCURVE",
"315 479 OFFCURVE",
"324 475 CURVE",
"341 488 LINE",
"327 496 OFFCURVE",
"307 502 OFFCURVE",
"288 502 CURVE SMOOTH",
"193 502 OFFCURVE",
"140 429 OFFCURVE",
"140 331 CURVE"
);
},
{
closed = 1;
nodes = (
"156 -1 LINE",
"156 500 LINE",
"134 500 LINE",
"134 -1 LINE"
);
}
);
width = 393;
},
{
layerId = "4F25946F-63AC-42D6-8D55-01CF6A99025B";
paths = (
{
closed = 1;
nodes = (
"250 268 LINE",
"250 302 OFFCURVE",
"289 317 OFFCURVE",
"326 317 CURVE SMOOTH",
"344 317 OFFCURVE",
"379 310 OFFCURVE",
"384 301 CURVE",
"426 464 LINE",
"422 486 OFFCURVE",
"398 505 OFFCURVE",
"355 505 CURVE SMOOTH",
"240 505 OFFCURVE",
"186 382 OFFCURVE",
"186 268 CURVE"
);
},
{
closed = 1;
nodes = (
"250 0 LINE",
"250 500 LINE",
"42 500 LINE",
"42 0 LINE"
);
}
);
width = 425;
},
{
associatedMasterId = "262880E7-CFE1-4BDA-902E-E24798F3240A";
layerId = "42CC11FC-6CFD-42F7-A362-E84ACC39CCA1";
name = "Medium{91,100}";
paths = (
{
closed = 1;
nodes = (
"191 307 LINE",
"191 374 OFFCURVE",
"237 420 OFFCURVE",
"302 420 CURVE SMOOTH",
"315 420 OFFCURVE",
"339 415 OFFCURVE",
"346 409 CURVE",
"373 479 LINE",
"363 492 OFFCURVE",
"341 503 OFFCURVE",
"313 503 CURVE SMOOTH",
"210 503 OFFCURVE",
"137 411 OFFCURVE",
"137 307 CURVE"
);
},
{
closed = 1;
nodes = (
"191 -1 LINE",
"191 500 LINE",
"99 500 LINE",
"99 -1 LINE"
);
}
);
width = 405;
}
);
unicode = 0072;
},
{
color = 1;
glyphname = s;
lastChange = "2016-10-17 05:53:13 +0000";
layers = (
{
layerId = "262880E7-CFE1-4BDA-902E-E24798F3240A";
paths = (
{
closed = 1;
nodes = (
"354 -3 OFFCURVE",
"421 47 OFFCURVE",
"421 126 CURVE SMOOTH",
"421 214 OFFCURVE",
"337 237 OFFCURVE",
"257 265 CURVE SMOOTH",
"168 296 OFFCURVE",
"119 311 OFFCURVE",
"119 372 CURVE SMOOTH",
"119 437 OFFCURVE",
"175 484 OFFCURVE",
"258 484 CURVE SMOOTH",
"341 484 OFFCURVE",
"397 438 OFFCURVE",
"397 369 CURVE SMOOTH",
"397 368 LINE",
"419 368 LINE",
"419 369 LINE SMOOTH",
"419 451 OFFCURVE",
"355 503 OFFCURVE",
"258 503 CURVE SMOOTH",
"161 503 OFFCURVE",
"97 450 OFFCURVE",
"97 372 CURVE SMOOTH",
"97 290 OFFCURVE",
"168 271 OFFCURVE",
"253 241 CURVE SMOOTH",
"329 214 OFFCURVE",
"399 196 OFFCURVE",
"399 126 CURVE SMOOTH",
"399 61 OFFCURVE",
"340 17 OFFCURVE",
"256 17 CURVE SMOOTH",
"172 17 OFFCURVE",
"117 60 OFFCURVE",
"117 126 CURVE SMOOTH",
"117 127 LINE",
"95 127 LINE",
"95 126 LINE SMOOTH",
"95 48 OFFCURVE",
"158 -3 OFFCURVE",
"256 -3 CURVE SMOOTH"
);
}
);
width = 516;
},
{
layerId = "4F25946F-63AC-42D6-8D55-01CF6A99025B";
paths = (
{
closed = 1;
nodes = (
"404 -10 OFFCURVE",
"489 62 OFFCURVE",
"489 151 CURVE SMOOTH",
"489 216 OFFCURVE",
"444 270 OFFCURVE",
"353 296 CURVE SMOOTH",
"293 313 OFFCURVE",
"217 318 OFFCURVE",
"217 351 CURVE SMOOTH",
"217 364 OFFCURVE",
"230 378 OFFCURVE",
"250 378 CURVE SMOOTH",
"270 378 OFFCURVE",
"286 364 OFFCURVE",
"286 341 CURVE",
"287 331 LINE",
"481 331 LINE",
"481 341 LINE",
"477 439 OFFCURVE",
"392 510 OFFCURVE",
"246 510 CURVE SMOOTH",
"98 510 OFFCURVE",
"14 437 OFFCURVE",
"14 353 CURVE SMOOTH",
"14 292 OFFCURVE",
"58 235 OFFCURVE",
"152 208 CURVE SMOOTH",
"208 192 OFFCURVE",
"280 187 OFFCURVE",
"280 149 CURVE SMOOTH",
"280 136 OFFCURVE",
"272 123 OFFCURVE",
"250 123 CURVE SMOOTH",
"231 123 OFFCURVE",
"216 133 OFFCURVE",
"212 155 CURVE SMOOTH",
"209 172 LINE",
"13 172 LINE",
"13 162 LINE",
"13 66 OFFCURVE",
"104 -10 OFFCURVE",
"256 -10 CURVE SMOOTH"
);
}
);
width = 500;
},
{
associatedMasterId = "262880E7-CFE1-4BDA-902E-E24798F3240A";
layerId = "677A5083-0B4E-4805-9AE1-F115960A3564";
name = "Semi Bold{101, 100}";
paths = (
{
closed = 1;
nodes = (
"365 -10 OFFCURVE",
"436 51 OFFCURVE",
"436 137 CURVE SMOOTH",
"436 213 OFFCURVE",
"381 258 OFFCURVE",
"297 286 CURVE SMOOTH",
"238 306 OFFCURVE",
"170 313 OFFCURVE",
"170 363 CURVE SMOOTH",
"170 395 OFFCURVE",
"199 424 OFFCURVE",
"246 424 CURVE SMOOTH",
"291 424 OFFCURVE",
"323 399 OFFCURVE",
"324 358 CURVE SMOOTH",
"324 352 LINE",
"431 352 LINE",
"431 358 LINE SMOOTH",
"431 446 OFFCURVE",
"360 510 OFFCURVE",
"245 510 CURVE SMOOTH",
"130 510 OFFCURVE",
"61 447 OFFCURVE",
"61 363 CURVE SMOOTH",
"61 291 OFFCURVE",
"113 248 OFFCURVE",
"197 219 CURVE SMOOTH",
"255 199 OFFCURVE",
"323 189 OFFCURVE",
"323 137 CURVE SMOOTH",
"323 100 OFFCURVE",
"290 75 OFFCURVE",
"245 75 CURVE SMOOTH",
"199 75 OFFCURVE",
"169 100 OFFCURVE",
"169 137 CURVE SMOOTH",
"169 146 LINE",
"59 146 LINE",
"59 141 LINE SMOOTH",
"59 54 OFFCURVE",
"132 -10 OFFCURVE",
"250 -10 CURVE SMOOTH"
);
}
);
width = 494;
}
);
unicode = 0073;
},
{
color = 1;
glyphname = t;
lastChange = "2016-10-17 05:23:47 +0000";
layers = (
{
layerId = "262880E7-CFE1-4BDA-902E-E24798F3240A";
paths = (
{
closed = 1;
nodes = (
"285 2 LINE",
"285 24 LINE",
"261 24 LINE SMOOTH",
"180 24 OFFCURVE",
"157 59 OFFCURVE",
"157 155 CURVE SMOOTH",
"157 479 LINE",
"271 479 LINE",
"271 500 LINE",
"157 500 LINE",
"157 610 LINE",
"135 610 LINE",
"135 500 LINE",
"71 500 LINE",
"71 479 LINE",
"135 479 LINE",
"135 155 LINE SMOOTH",
"135 45 OFFCURVE",
"167 2 OFFCURVE",
"261 2 CURVE SMOOTH"
);
}
);
width = 345;
},
{
layerId = "4F25946F-63AC-42D6-8D55-01CF6A99025B";
paths = (
{
closed = 1;
nodes = (
"307 1 LINE",
"313 181 LINE",
"310 181 LINE",
"272 177 OFFCURVE",
"250 172 OFFCURVE",
"250 203 CURVE SMOOTH",
"250 326 LINE",
"330 326 LINE",
"330 500 LINE",
"250 500 LINE",
"250 700 LINE",
"56 700 LINE",
"56 500 LINE",
"12 500 LINE",
"12 326 LINE",
"56 326 LINE",
"56 163 LINE SMOOTH",
"56 3 OFFCURVE",
"119 -24 OFFCURVE",
"301 1 CURVE"
);
}
);
width = 351;
}
);
unicode = 0074;
},
{
color = 1;
glyphname = u;
lastChange = "2016-10-17 05:53:33 +0000";
layers = (
{
layerId = "262880E7-CFE1-4BDA-902E-E24798F3240A";
paths = (
{
closed = 1;
nodes = (
"384 -3 OFFCURVE",
"443 58 OFFCURVE",
"443 157 CURVE",
"426 157 LINE",
"426 70 OFFCURVE",
"373 17 OFFCURVE",
"287 17 CURVE SMOOTH",
"201 17 OFFCURVE",
"148 70 OFFCURVE",
"148 157 CURVE SMOOTH",
"148 500 LINE",
"126 500 LINE",
"126 156 LINE SMOOTH",
"126 57 OFFCURVE",
"187 -3 OFFCURVE",
"287 -3 CURVE SMOOTH"
);
},
{
closed = 1;
nodes = (
"448 0 LINE",
"448 500 LINE",
"426 500 LINE",
"426 0 LINE"
);
}
);
width = 582;
},
{
layerId = "4F25946F-63AC-42D6-8D55-01CF6A99025B";
paths = (
{
closed = 1;
nodes = (
"349 -2 OFFCURVE",
"396 96 OFFCURVE",
"396 196 CURVE",
"331 188 LINE",
"331 165 OFFCURVE",
"313 150 OFFCURVE",
"287 150 CURVE SMOOTH",
"261 150 OFFCURVE",
"244 165 OFFCURVE",
"244 188 CURVE SMOOTH",
"244 500 LINE",
"36 500 LINE",
"36 150 LINE SMOOTH",
"36 49 OFFCURVE",
"85 -2 OFFCURVE",
"196 -2 CURVE SMOOTH"
);
},
{
closed = 1;
nodes = (
"538 0 LINE",
"538 500 LINE",
"331 500 LINE",
"331 0 LINE"
);
}
);
width = 580;
},
{
associatedMasterId = "4F25946F-63AC-42D6-8D55-01CF6A99025B";
layerId = "47FA07B0-C6A0-4AEE-ADEB-F55ADBF433D4";
name = "Medium{91,100}";
paths = (
{
closed = 1;
nodes = (
"372 -6 OFFCURVE",
"436 64 OFFCURVE",
"436 168 CURVE",
"390 168 LINE",
"390 107 OFFCURVE",
"349 67 OFFCURVE",
"287 67 CURVE SMOOTH",
"226 67 OFFCURVE",
"185 107 OFFCURVE",
"185 168 CURVE SMOOTH",
"185 500 LINE",
"92 500 LINE",
"92 154 LINE SMOOTH",
"92 58 OFFCURVE",
"166 -6 OFFCURVE",
"277 -6 CURVE SMOOTH"
);
},
{
closed = 1;
nodes = (
"483 0 LINE",
"483 500 LINE",
"390 500 LINE",
"390 0 LINE"
);
}
);
width = 582;
}
);
unicode = 0075;
},
{
color = 1;
glyphname = v;
lastChange = "2016-10-17 05:53:46 +0000";
layers = (
{
layerId = "262880E7-CFE1-4BDA-902E-E24798F3240A";
paths = (
{
closed = 1;
nodes = (
"256 3 LINE",
"421 500 LINE",
"399 500 LINE",
"245 38 LINE",
"91 500 LINE",
"69 500 LINE",
"234 3 LINE"
);
}
);
width = 490;
},
{
layerId = "4F25946F-63AC-42D6-8D55-01CF6A99025B";
paths = (
{
closed = 1;
nodes = (
"350 0 LINE",
"514 500 LINE",
"303 500 LINE",
"254 257 LINE",
"205 500 LINE",
"-6 500 LINE",
"158 0 LINE"
);
}
);
width = 508;
},
{
associatedMasterId = "262880E7-CFE1-4BDA-902E-E24798F3240A";
layerId = "30C42329-3409-4879-A8EC-0B65B1A31C66";
name = "Medium { 91, 100}";
paths = (
{
closed = 1;
nodes = (
"285 0 LINE",
"442 500 LINE",
"349 500 LINE",
"241 129 LINE",
"133 500 LINE",
"41 500 LINE",
"198 0 LINE"
);
}
);
width = 483;
}
);
unicode = 0076;
},
{
color = 1;
glyphname = w;
lastChange = "2016-10-17 05:23:46 +0000";
layers = (
{
layerId = "262880E7-CFE1-4BDA-902E-E24798F3240A";
paths = (
{
closed = 1;
nodes = (
"231 0 LINE",
"355 458 LINE",
"479 0 LINE",
"501 0 LINE",
"636 500 LINE",
"614 500 LINE",
"490 42 LINE",
"366 500 LINE",
"344 500 LINE",
"220 42 LINE",
"96 500 LINE",
"74 500 LINE",
"209 0 LINE"
);
}
);
width = 710;
},
{
layerId = "4F25946F-63AC-42D6-8D55-01CF6A99025B";
paths = (
{
closed = 1;
nodes = (
"308 0 LINE",
"341 240 LINE",
"378 0 LINE",
"568 0 LINE",
"688 500 LINE",
"494 500 LINE",
"461 287 LINE",
"425 500 LINE",
"255 500 LINE",
"220 287 LINE",
"185 500 LINE",
"-2 500 LINE",
"117 0 LINE"
);
}
);
width = 686;
}
);
unicode = 0077;
},
{
color = 1;
glyphname = x;
lastChange = "2016-10-17 05:23:45 +0000";
layers = (
{
layerId = "262880E7-CFE1-4BDA-902E-E24798F3240A";
paths = (
{
closed = 1;
nodes = (
"398 501 LINE",
"244 267 LINE",
"90 501 LINE",
"68 501 LINE",
"233 250 LINE",
"68 -1 LINE",
"90 -1 LINE",
"244 233 LINE",
"398 -1 LINE",
"420 -1 LINE",
"255 250 LINE",
"420 501 LINE"
);
}
);
width = 488;
},
{
layerId = "4F25946F-63AC-42D6-8D55-01CF6A99025B";
paths = (
{
closed = 1;
nodes = (
"306 500 LINE",
"261 411 LINE",
"217 500 LINE",
"-5 500 LINE",
"153 250 LINE",
"-5 0 LINE",
"217 0 LINE",
"261 89 LINE",
"306 0 LINE",
"527 0 LINE",
"370 250 LINE",
"527 500 LINE"
);
}
);
width = 522;
},
{
associatedMasterId = "262880E7-CFE1-4BDA-902E-E24798F3240A";
layerId = "A7F0FF68-370D-4ABA-A088-97B4F33DE289";
name = "Light Oct 15 16, 02:53";
paths = (
{
closed = 1;
nodes = (
"368 501 LINE",
"390 501 LINE",
"60 -1 LINE",
"38 -1 LINE"
);
},
{
closed = 1;
nodes = (
"38 501 LINE",
"60 501 LINE",
"390 -1 LINE",
"368 -1 LINE"
);
}
);
width = 428;
},
{
associatedMasterId = "4F25946F-63AC-42D6-8D55-01CF6A99025B";
layerId = "C8E6816F-D14D-432C-92C0-4654658DD355";
name = "Bold Oct 15 16, 02:53";
paths = (
{
closed = 1;
nodes = (
"306 500 LINE",
"527 500 LINE",
"217 0 LINE",
"-5 0 LINE"
);
},
{
closed = 1;
nodes = (
"-5 500 LINE",
"217 500 LINE",
"527 0 LINE",
"306 0 LINE"
);
}
);
width = 522;
}
);
unicode = 0078;
},
{
color = 1;
glyphname = y;
lastChange = "2016-10-17 05:23:46 +0000";
layers = (
{
layerId = "262880E7-CFE1-4BDA-902E-E24798F3240A";
paths = (
{
closed = 1;
nodes = (
"245 33 LINE",
"90 500 LINE",
"68 500 LINE",
"234 -1 LINE",
"212 -67 LINE SMOOTH",
"178 -169 OFFCURVE",
"155 -190 OFFCURVE",
"92 -190 CURVE",
"92 -211 LINE",
"167 -211 OFFCURVE",
"199 -184 OFFCURVE",
"232 -73 CURVE SMOOTH",
"422 500 LINE",
"400 500 LINE"
);
}
);
width = 490;
},
{
layerId = "4F25946F-63AC-42D6-8D55-01CF6A99025B";
paths = (
{
closed = 1;
nodes = (
"239 321 LINE",
"193 500 LINE",
"-15 500 LINE",
"148 106 LINE",
"140 82 LINE SMOOTH",
"127 42 OFFCURVE",
"112 30 OFFCURVE",
"54 30 CURVE",
"54 -128 LINE",
"220 -128 OFFCURVE",
"278 -72 OFFCURVE",
"318 35 CURVE SMOOTH",
"493 500 LINE",
"285 500 LINE"
);
}
);
width = 480;
}
);
unicode = 0079;
},
{
color = 1;
glyphname = z;
lastChange = "2016-10-17 05:54:21 +0000";
layers = (
{
layerId = "262880E7-CFE1-4BDA-902E-E24798F3240A";
paths = (
{
closed = 1;
nodes = (
"385 1 LINE",
"385 23 LINE",
"92 23 LINE",
"396 478 LINE",
"396 499 LINE",
"73 499 LINE",
"73 478 LINE",
"372 478 LINE",
"68 23 LINE",
"68 1 LINE"
);
}
);
width = 464;
},
{
layerId = "4F25946F-63AC-42D6-8D55-01CF6A99025B";
paths = (
{
closed = 1;
nodes = (
"468 10 LINE",
"468 157 LINE",
"293 157 LINE",
"472 348 LINE",
"472 496 LINE",
"51 496 LINE",
"51 348 LINE",
"239 347 LINE",
"52 157 LINE",
"51 10 LINE"
);
}
);
width = 511;
},
{
associatedMasterId = "4F25946F-63AC-42D6-8D55-01CF6A99025B";
layerId = "516F1C78-99C1-4D19-A6A1-804BC5CB958E";
name = "Demibold {119,100}";
paths = (
{
closed = 1;
nodes = (
"416 6 LINE",
"416 113 LINE",
"210 113 LINE",
"418 386 LINE",
"418 497 LINE",
"59 497 LINE",
"59 386 LINE",
"282 386 LINE",
"69 113 LINE",
"69 6 LINE"
);
}
);
width = 470;
}
);
unicode = 007A;
},
{
color = 1;
glyphname = zero;
lastChange = "2016-10-17 05:23:46 +0000";
layers = (
{
layerId = "262880E7-CFE1-4BDA-902E-E24798F3240A";
paths = (
{
closed = 1;
nodes = (
"416 -9 OFFCURVE",
"471 45 OFFCURVE",
"471 150 CURVE SMOOTH",
"471 550 LINE SMOOTH",
"471 655 OFFCURVE",
"416 709 OFFCURVE",
"311 709 CURVE SMOOTH",
"206 709 OFFCURVE",
"151 655 OFFCURVE",
"151 550 CURVE SMOOTH",
"151 150 LINE SMOOTH",
"151 45 OFFCURVE",
"206 -9 OFFCURVE",
"311 -9 CURVE SMOOTH"
);
},
{
closed = 1;
nodes = (
"220 11 OFFCURVE",
"173 58 OFFCURVE",
"173 150 CURVE SMOOTH",
"173 550 LINE SMOOTH",
"173 642 OFFCURVE",
"220 690 OFFCURVE",
"311 690 CURVE SMOOTH",
"402 690 OFFCURVE",
"449 642 OFFCURVE",
"449 550 CURVE SMOOTH",
"449 150 LINE SMOOTH",
"449 58 OFFCURVE",
"402 11 OFFCURVE",
"311 11 CURVE SMOOTH"
);
}
);
width = 622;
},
{
layerId = "4F25946F-63AC-42D6-8D55-01CF6A99025B";
paths = (
{
closed = 1;
nodes = (
"464 -10 OFFCURVE",
"552 73 OFFCURVE",
"552 233 CURVE SMOOTH",
"552 467 LINE SMOOTH",
"552 627 OFFCURVE",
"464 710 OFFCURVE",
"292 710 CURVE SMOOTH",
"120 710 OFFCURVE",
"32 627 OFFCURVE",
"32 467 CURVE SMOOTH",
"32 233 LINE SMOOTH",
"32 73 OFFCURVE",
"120 -10 OFFCURVE",
"292 -10 CURVE SMOOTH"
);
},
{
closed = 1;
nodes = (
"263 174 OFFCURVE",
"244 194 OFFCURVE",
"244 223 CURVE SMOOTH",
"244 477 LINE SMOOTH",
"244 506 OFFCURVE",
"263 526 OFFCURVE",
"292 526 CURVE SMOOTH",
"321 526 OFFCURVE",
"340 506 OFFCURVE",
"340 477 CURVE SMOOTH",
"340 223 LINE SMOOTH",
"340 194 OFFCURVE",
"321 174 OFFCURVE",
"292 174 CURVE SMOOTH"
);
}
);
width = 584;
}
);
unicode = 0030;
},
{
color = 1;
glyphname = one;
lastChange = "2016-10-17 05:23:47 +0000";
layers = (
{
layerId = "4F25946F-63AC-42D6-8D55-01CF6A99025B";
paths = (
{
closed = 1;
nodes = (
"283 0 LINE",
"283 700 LINE",
"71 700 LINE",
"71 0 LINE"
);
},
{
closed = 1;
nodes = (
"8 512 LINE",
"71 512 LINE",
"71 700 LINE",
"8 674 LINE"
);
}
);
width = 334;
},
{
layerId = "262880E7-CFE1-4BDA-902E-E24798F3240A";
paths = (
{
closed = 1;
nodes = (
"185 0 LINE",
"185 700 LINE",
"163 700 LINE",
"163 0 LINE"
);
},
{
closed = 1;
nodes = (
"122 646 LINE",
"163 662 LINE",
"163 700 LINE",
"122 668 LINE"
);
}
);
width = 345;
}
);
unicode = 0031;
},
{
color = 1;
glyphname = two;
lastChange = "2016-10-17 05:23:46 +0000";
layers = (
{
layerId = "4F25946F-63AC-42D6-8D55-01CF6A99025B";
paths = (
{
closed = 1;
nodes = (
"522 0 LINE",
"522 188 LINE",
"275 188 LINE",
"506 447 LINE",
"523 475 OFFCURVE",
"534 500 OFFCURVE",
"534 534 CURVE SMOOTH",
"534 633 OFFCURVE",
"439 700 OFFCURVE",
"282 700 CURVE SMOOTH",
"123 700 OFFCURVE",
"22 631 OFFCURVE",
"22 519 CURVE",
"22 454 LINE",
"230 455 LINE",
"230 481 LINE",
"230 506 OFFCURVE",
"247 523 OFFCURVE",
"272 523 CURVE SMOOTH",
"300 523 OFFCURVE",
"312 502 OFFCURVE",
"312 489 CURVE SMOOTH",
"312 474 OFFCURVE",
"298 455 OFFCURVE",
"273 426 CURVE",
"25 171 LINE",
"25 0 LINE"
);
}
);
width = 553;
},
{
layerId = "262880E7-CFE1-4BDA-902E-E24798F3240A";
paths = (
{
closed = 1;
nodes = (
"438 0 LINE",
"438 22 LINE",
"135 22 LINE",
"375 364 LINE SMOOTH",
"413 419 OFFCURVE",
"437 470 OFFCURVE",
"437 530 CURVE SMOOTH",
"437 615 OFFCURVE",
"388 710 OFFCURVE",
"274 710 CURVE SMOOTH",
"169 710 OFFCURVE",
"106 635 OFFCURVE",
"106 500 CURVE",
"106 479 LINE",
"127 479 LINE",
"127 500 LINE SMOOTH",
"127 618 OFFCURVE",
"182 690 OFFCURVE",
"273 690 CURVE SMOOTH",
"361 690 OFFCURVE",
"416 622 OFFCURVE",
"416 530 CURVE SMOOTH",
"416 478 OFFCURVE",
"398 434 OFFCURVE",
"370 395 CURVE SMOOTH",
"107 21 LINE",
"106 0 LINE"
);
}
);
width = 547;
}
);
unicode = 0032;
},
{
color = 1;
glyphname = eight;
lastChange = "2016-10-17 05:23:46 +0000";
layers = (
{
layerId = "262880E7-CFE1-4BDA-902E-E24798F3240A";
paths = (
{
closed = 1;
nodes = (
"408 364 OFFCURVE",
"463 418 OFFCURVE",
"463 523 CURVE SMOOTH",
"463 548 LINE SMOOTH",
"463 653 OFFCURVE",
"408 707 OFFCURVE",
"303 707 CURVE SMOOTH",
"198 707 OFFCURVE",
"143 653 OFFCURVE",
"143 548 CURVE SMOOTH",
"143 523 LINE SMOOTH",
"143 418 OFFCURVE",
"198 364 OFFCURVE",
"303 364 CURVE SMOOTH"
);
},
{
closed = 1;
nodes = (
"212 384 OFFCURVE",
"165 431 OFFCURVE",
"165 523 CURVE SMOOTH",
"165 548 LINE SMOOTH",
"165 640 OFFCURVE",
"212 688 OFFCURVE",
"303 688 CURVE SMOOTH",
"394 688 OFFCURVE",
"441 640 OFFCURVE",
"441 548 CURVE SMOOTH",
"441 523 LINE SMOOTH",
"441 431 OFFCURVE",
"394 384 OFFCURVE",
"303 384 CURVE SMOOTH"
);
},
{
closed = 1;
nodes = (
"408 -18 OFFCURVE",
"463 36 OFFCURVE",
"463 141 CURVE SMOOTH",
"463 225 LINE SMOOTH",
"463 330 OFFCURVE",
"408 384 OFFCURVE",
"303 384 CURVE SMOOTH",
"198 384 OFFCURVE",
"143 330 OFFCURVE",
"143 225 CURVE SMOOTH",
"143 141 LINE SMOOTH",
"143 36 OFFCURVE",
"198 -18 OFFCURVE",
"303 -18 CURVE SMOOTH"
);
},
{
closed = 1;
nodes = (
"212 2 OFFCURVE",
"165 49 OFFCURVE",
"165 141 CURVE SMOOTH",
"165 225 LINE SMOOTH",
"165 317 OFFCURVE",
"212 365 OFFCURVE",
"303 365 CURVE SMOOTH",
"394 365 OFFCURVE",
"441 317 OFFCURVE",
"441 225 CURVE SMOOTH",
"441 141 LINE SMOOTH",
"441 49 OFFCURVE",
"394 2 OFFCURVE",
"303 2 CURVE SMOOTH"
);
}
);
width = 606;
},
{
layerId = "4F25946F-63AC-42D6-8D55-01CF6A99025B";
paths = (
{
closed = 1;
nodes = (
"319 337 OFFCURVE",
"510 343 OFFCURVE",
"510 498 CURVE",
"510 507 LINE",
"508 641 OFFCURVE",
"427 711 OFFCURVE",
"274 711 CURVE",
"120 711 OFFCURVE",
"40 650 OFFCURVE",
"40 516 CURVE",
"40 507 LINE",
"41 344 OFFCURVE",
"221 337 OFFCURVE",
"274 337 CURVE SMOOTH"
);
},
{
closed = 1;
nodes = (
"248 452 OFFCURVE",
"231 468 OFFCURVE",
"231 493 CURVE SMOOTH",
"231 537 LINE SMOOTH",
"231 562 OFFCURVE",
"248 578 OFFCURVE",
"274 578 CURVE SMOOTH",
"300 578 OFFCURVE",
"318 562 OFFCURVE",
"318 537 CURVE SMOOTH",
"318 493 LINE SMOOTH",
"318 468 OFFCURVE",
"300 452 OFFCURVE",
"274 452 CURVE SMOOTH"
);
},
{
closed = 1;
nodes = (
"449 -5 OFFCURVE",
"530 77 OFFCURVE",
"530 202 CURVE",
"530 231 LINE",
"530 324 OFFCURVE",
"439 455 OFFCURVE",
"275 401 CURVE",
"117 455 OFFCURVE",
"20 316 OFFCURVE",
"20 231 CURVE",
"20 202 LINE",
"21 69 OFFCURVE",
"107 -5 OFFCURVE",
"274 -5 CURVE SMOOTH"
);
},
{
closed = 1;
nodes = (
"248 143 OFFCURVE",
"231 159 OFFCURVE",
"231 184 CURVE SMOOTH",
"231 262 LINE SMOOTH",
"231 287 OFFCURVE",
"248 303 OFFCURVE",
"274 303 CURVE",
"300 303 OFFCURVE",
"318 287 OFFCURVE",
"318 262 CURVE SMOOTH",
"318 184 LINE SMOOTH",
"318 159 OFFCURVE",
"300 143 OFFCURVE",
"274 143 CURVE SMOOTH"
);
}
);
width = 550;
},
{
associatedMasterId = "4F25946F-63AC-42D6-8D55-01CF6A99025B";
layerId = "9541491C-EA7C-4850-9E65-38E203544E44";
name = "Medium {91,100}";
paths = (
{
closed = 1;
nodes = (
"372 344 OFFCURVE",
"442 407 OFFCURVE",
"442 514 CURVE SMOOTH",
"442 532 LINE SMOOTH",
"442 643 OFFCURVE",
"372 709 OFFCURVE",
"254 709 CURVE SMOOTH",
"135 709 OFFCURVE",
"65 645 OFFCURVE",
"65 536 CURVE SMOOTH",
"65 517 LINE SMOOTH",
"66 408 OFFCURVE",
"136 344 OFFCURVE",
"254 344 CURVE SMOOTH"
);
},
{
closed = 1;
nodes = (
"193 409 OFFCURVE",
"152 450 OFFCURVE",
"152 511 CURVE SMOOTH",
"152 540 LINE SMOOTH",
"152 601 OFFCURVE",
"193 642 OFFCURVE",
"254 642 CURVE SMOOTH",
"315 642 OFFCURVE",
"356 601 OFFCURVE",
"356 540 CURVE SMOOTH",
"356 511 LINE SMOOTH",
"356 450 OFFCURVE",
"315 409 OFFCURVE",
"254 409 CURVE SMOOTH"
);
},
{
closed = 1;
nodes = (
"377 -13 OFFCURVE",
"450 53 OFFCURVE",
"450 164 CURVE SMOOTH",
"450 227 LINE SMOOTH",
"450 350 OFFCURVE",
"377 410 OFFCURVE",
"254 390 CURVE SMOOTH",
"131 411 OFFCURVE",
"58 350 OFFCURVE",
"58 227 CURVE SMOOTH",
"58 164 LINE SMOOTH",
"58 53 OFFCURVE",
"131 -13 OFFCURVE",
"254 -13 CURVE SMOOTH"
);
},
{
closed = 1;
nodes = (
"193 61 OFFCURVE",
"152 102 OFFCURVE",
"152 163 CURVE SMOOTH",
"152 242 LINE SMOOTH",
"152 303 OFFCURVE",
"193 344 OFFCURVE",
"254 344 CURVE SMOOTH",
"315 344 OFFCURVE",
"356 303 OFFCURVE",
"356 242 CURVE SMOOTH",
"356 163 LINE SMOOTH",
"356 102 OFFCURVE",
"315 61 OFFCURVE",
"254 61 CURVE SMOOTH"
);
}
);
width = 508;
}
);
unicode = 0038;
},
{
color = 1;
glyphname = colon;
lastChange = "2016-10-17 05:23:46 +0000";
layers = (
{
layerId = "262880E7-CFE1-4BDA-902E-E24798F3240A";
paths = (
{
closed = 1;
nodes = (
"231 37 OFFCURVE",
"250 55 OFFCURVE",
"250 78 CURVE SMOOTH",
"250 100 OFFCURVE",
"231 118 OFFCURVE",
"209 118 CURVE SMOOTH",
"187 118 OFFCURVE",
"168 100 OFFCURVE",
"168 78 CURVE SMOOTH",
"168 55 OFFCURVE",
"186 37 OFFCURVE",
"209 37 CURVE SMOOTH"
);
},
{
closed = 1;
nodes = (
"231 350 OFFCURVE",
"250 368 OFFCURVE",
"250 391 CURVE SMOOTH",
"250 413 OFFCURVE",
"231 431 OFFCURVE",
"209 431 CURVE SMOOTH",
"187 431 OFFCURVE",
"168 413 OFFCURVE",
"168 391 CURVE SMOOTH",
"168 368 OFFCURVE",
"186 350 OFFCURVE",
"209 350 CURVE SMOOTH"
);
}
);
width = 418;
},
{
layerId = "4F25946F-63AC-42D6-8D55-01CF6A99025B";
paths = (
{
closed = 1;
nodes = (
"195 -6 OFFCURVE",
"244 40 OFFCURVE",
"244 99 CURVE",
"244 156 OFFCURVE",
"195 202 OFFCURVE",
"138 202 CURVE SMOOTH",
"81 202 OFFCURVE",
"32 156 OFFCURVE",
"32 99 CURVE SMOOTH",
"32 40 OFFCURVE",
"79 -6 OFFCURVE",
"138 -6 CURVE SMOOTH"
);
},
{
closed = 1;
nodes = (
"195 288 OFFCURVE",
"244 334 OFFCURVE",
"244 393 CURVE",
"244 450 OFFCURVE",
"195 496 OFFCURVE",
"138 496 CURVE SMOOTH",
"81 496 OFFCURVE",
"32 450 OFFCURVE",
"32 393 CURVE SMOOTH",
"32 334 OFFCURVE",
"79 288 OFFCURVE",
"138 288 CURVE SMOOTH"
);
}
);
width = 275;
}
);
unicode = 003A;
},
{
color = 1;
glyphname = comma;
lastChange = "2016-10-17 05:26:20 +0000";
layers = (
{
layerId = "262880E7-CFE1-4BDA-902E-E24798F3240A";
paths = (
{
closed = 1;
nodes = (
"178 153 LINE",
"152 153 LINE",
"102 -66 LINE",
"123 -66 LINE"
);
}
);
width = 278;
},
{
layerId = "4F25946F-63AC-42D6-8D55-01CF6A99025B";
paths = (
{
closed = 1;
nodes = (
"219 143 LINE",
"39 142 LINE",
"20 -86 LINE",
"168 -86 LINE"
);
}
);
width = 254;
}
);
unicode = 002C;
},
{
color = 1;
glyphname = exclam;
lastChange = "2016-10-17 05:23:46 +0000";
layers = (
{
layerId = "262880E7-CFE1-4BDA-902E-E24798F3240A";
paths = (
{
closed = 1;
nodes = (
"212 220 LINE",
"212 700 LINE",
"190 700 LINE",
"190 220 LINE"
);
},
{
closed = 1;
nodes = (
"220 5 OFFCURVE",
"239 23 OFFCURVE",
"239 46 CURVE SMOOTH",
"239 68 OFFCURVE",
"220 86 OFFCURVE",
"198 86 CURVE SMOOTH",
"176 86 OFFCURVE",
"157 68 OFFCURVE",
"157 46 CURVE SMOOTH",
"157 23 OFFCURVE",
"175 5 OFFCURVE",
"198 5 CURVE SMOOTH"
);
}
);
width = 401;
},
{
layerId = "4F25946F-63AC-42D6-8D55-01CF6A99025B";
paths = (
{
closed = 1;
nodes = (
"225 250 LINE",
"255 700 LINE",
"47 700 LINE",
"77 250 LINE"
);
},
{
closed = 1;
nodes = (
"206 -6 OFFCURVE",
"255 40 OFFCURVE",
"255 99 CURVE",
"255 156 OFFCURVE",
"206 202 OFFCURVE",
"149 202 CURVE SMOOTH",
"92 202 OFFCURVE",
"43 156 OFFCURVE",
"43 99 CURVE SMOOTH",
"43 40 OFFCURVE",
"90 -6 OFFCURVE",
"149 -6 CURVE SMOOTH"
);
}
);
width = 301;
}
);
unicode = 0021;
},
{
color = 1;
glyphname = period;
lastChange = "2016-10-17 05:23:46 +0000";
layers = (
{
layerId = "262880E7-CFE1-4BDA-902E-E24798F3240A";
paths = (
{
closed = 1;
nodes = (
"242 5 OFFCURVE",
"261 23 OFFCURVE",
"261 46 CURVE SMOOTH",
"261 68 OFFCURVE",
"242 86 OFFCURVE",
"220 86 CURVE SMOOTH",
"198 86 OFFCURVE",
"179 68 OFFCURVE",
"179 46 CURVE SMOOTH",
"179 23 OFFCURVE",
"197 5 OFFCURVE",
"220 5 CURVE SMOOTH"
);
}
);
width = 440;
},
{
layerId = "4F25946F-63AC-42D6-8D55-01CF6A99025B";
paths = (
{
closed = 1;
nodes = (
"201 -6 OFFCURVE",
"250 40 OFFCURVE",
"250 99 CURVE",
"250 156 OFFCURVE",
"201 202 OFFCURVE",
"144 202 CURVE SMOOTH",
"87 202 OFFCURVE",
"38 156 OFFCURVE",
"38 99 CURVE SMOOTH",
"38 40 OFFCURVE",
"85 -6 OFFCURVE",
"144 -6 CURVE SMOOTH"
);
}
);
width = 288;
}
);
unicode = 002E;
},
{
color = 1;
glyphname = question;
lastChange = "2016-10-17 05:23:47 +0000";
layers = (
{
layerId = "4F25946F-63AC-42D6-8D55-01CF6A99025B";
paths = (
{
closed = 1;
nodes = (
"415 223 LINE",
"415 238 OFFCURVE",
"415 256 OFFCURVE",
"415 262 CURVE SMOOTH",
"415 330 OFFCURVE",
"571 329 OFFCURVE",
"571 494 CURVE SMOOTH",
"571 629 OFFCURVE",
"473 710 OFFCURVE",
"327 710 CURVE SMOOTH",
"172 710 OFFCURVE",
"69 618 OFFCURVE",
"69 479 CURVE SMOOTH",
"69 474 LINE",
"281 464 LINE",
"281 479 LINE SMOOTH",
"281 502 OFFCURVE",
"297 518 OFFCURVE",
"321 518 CURVE SMOOTH",
"342 518 OFFCURVE",
"356 506 OFFCURVE",
"356 487 CURVE SMOOTH",
"356 424 OFFCURVE",
"211 423 OFFCURVE",
"211 290 CURVE SMOOTH",
"211 268 OFFCURVE",
"211 261 OFFCURVE",
"211 224 CURVE"
);
},
{
closed = 1;
nodes = (
"375 -6 OFFCURVE",
"424 40 OFFCURVE",
"424 99 CURVE",
"424 156 OFFCURVE",
"375 202 OFFCURVE",
"318 202 CURVE SMOOTH",
"261 202 OFFCURVE",
"212 156 OFFCURVE",
"212 99 CURVE SMOOTH",
"212 40 OFFCURVE",
"259 -6 OFFCURVE",
"318 -6 CURVE SMOOTH"
);
}
);
width = 600;
},
{
layerId = "262880E7-CFE1-4BDA-902E-E24798F3240A";
paths = (
{
closed = 1;
nodes = (
"301 239 LINE",
"271 243 OFFCURVE",
"256 254 OFFCURVE",
"256 275 CURVE SMOOTH",
"256 346 OFFCURVE",
"437 378 OFFCURVE",
"437 546 CURVE SMOOTH",
"437 645 OFFCURVE",
"374 709 OFFCURVE",
"280 709 CURVE SMOOTH",
"185 709 OFFCURVE",
"121 645 OFFCURVE",
"121 550 CURVE SMOOTH",
"121 500 LINE",
"143 500 LINE",
"143 550 LINE SMOOTH",
"143 633 OFFCURVE",
"198 688 OFFCURVE",
"280 688 CURVE SMOOTH",
"361 688 OFFCURVE",
"415 633 OFFCURVE",
"415 549 CURVE SMOOTH",
"415 395 OFFCURVE",
"232 364 OFFCURVE",
"232 271 CURVE SMOOTH",
"232 235 OFFCURVE",
"260 213 OFFCURVE",
"301 215 CURVE"
);
},
{
closed = 1;
nodes = (
"287 5 OFFCURVE",
"306 23 OFFCURVE",
"306 46 CURVE SMOOTH",
"306 68 OFFCURVE",
"287 86 OFFCURVE",
"265 86 CURVE SMOOTH",
"243 86 OFFCURVE",
"224 68 OFFCURVE",
"224 46 CURVE SMOOTH",
"224 23 OFFCURVE",
"242 5 OFFCURVE",
"265 5 CURVE SMOOTH"
);
}
);
width = 564;
},
{
associatedMasterId = "4F25946F-63AC-42D6-8D55-01CF6A99025B";
layerId = "E56F6CC4-F9B5-46E1-BC01-FC7B34A3882B";
name = "DemiBold {119,100}";
paths = (
{
closed = 1;
nodes = (
"344 261 LINE",
"333 262 OFFCURVE",
"324 261 OFFCURVE",
"324 276 CURVE SMOOTH",
"324 341 OFFCURVE",
"489 355 OFFCURVE",
"489 519 CURVE SMOOTH",
"489 634 OFFCURVE",
"409 710 OFFCURVE",
"286 710 CURVE SMOOTH",
"161 710 OFFCURVE",
"74 630 OFFCURVE",
"74 512 CURVE SMOOTH",
"74 486 LINE",
"198 481 LINE",
"198 512 LINE SMOOTH",
"198 562 OFFCURVE",
"231 597 OFFCURVE",
"283 597 CURVE SMOOTH",
"333 597 OFFCURVE",
"364 565 OFFCURVE",
"364 516 CURVE SMOOTH",
"364 401 OFFCURVE",
"194 408 OFFCURVE",
"194 270 CURVE SMOOTH",
"194 214 OFFCURVE",
"222 166 OFFCURVE",
"332 182 CURVE"
);
},
{
closed = 1;
nodes = (
"313 -1 OFFCURVE",
"348 32 OFFCURVE",
"348 74 CURVE SMOOTH",
"348 115 OFFCURVE",
"313 148 OFFCURVE",
"272 148 CURVE SMOOTH",
"232 148 OFFCURVE",
"197 115 OFFCURVE",
"197 74 CURVE SMOOTH",
"197 32 OFFCURVE",
"230 -1 OFFCURVE",
"272 -1 CURVE SMOOTH"
);
}
);
width = 539;
}
);
unicode = 003F;
},
{
color = 1;
glyphname = quotedbl;
lastChange = "2016-10-17 05:23:46 +0000";
layers = (
{
layerId = "262880E7-CFE1-4BDA-902E-E24798F3240A";
paths = (
{
closed = 1;
nodes = (
"319 501 LINE",
"319 693 LINE",
"297 693 LINE",
"297 501 LINE"
);
},
{
closed = 1;
nodes = (
"209 501 LINE",
"209 693 LINE",
"187 693 LINE",
"187 501 LINE"
);
}
);
width = 506;
},
{
layerId = "4F25946F-63AC-42D6-8D55-01CF6A99025B";
paths = (
{
closed = 1;
nodes = (
"521 481 LINE",
"531 693 LINE",
"329 693 LINE",
"337 481 LINE"
);
},
{
closed = 1;
nodes = (
"251 481 LINE",
"261 693 LINE",
"59 693 LINE",
"69 481 LINE"
);
}
);
width = 590;
}
);
unicode = 0022;
},
{
color = 1;
glyphname = quotesingle;
lastChange = "2016-10-17 05:23:46 +0000";
layers = (
{
layerId = "262880E7-CFE1-4BDA-902E-E24798F3240A";
paths = (
{
closed = 1;
nodes = (
"209 697 LINE",
"187 697 LINE",
"187 507 LINE",
"209 507 LINE"
);
}
);
width = 396;
},
{
layerId = "4F25946F-63AC-42D6-8D55-01CF6A99025B";
paths = (
{
closed = 1;
nodes = (
"238 699 LINE",
"54 699 LINE",
"64 452 LINE",
"228 452 LINE"
);
}
);
width = 292;
}
);
unicode = 0027;
},
{
color = 1;
glyphname = semicolon;
lastChange = "2016-10-17 05:23:46 +0000";
layers = (
{
layerId = "262880E7-CFE1-4BDA-902E-E24798F3240A";
paths = (
{
closed = 1;
nodes = (
"228 370 OFFCURVE",
"247 388 OFFCURVE",
"247 411 CURVE",
"247 433 OFFCURVE",
"228 451 OFFCURVE",
"206 451 CURVE SMOOTH",
"184 451 OFFCURVE",
"165 433 OFFCURVE",
"165 411 CURVE SMOOTH",
"165 388 OFFCURVE",
"183 370 OFFCURVE",
"206 370 CURVE SMOOTH"
);
},
{
closed = 1;
nodes = (
"186 -60 LINE",
"222 147 LINE",
"200 147 LINE",
"165 -60 LINE"
);
}
);
width = 403;
},
{
layerId = "4F25946F-63AC-42D6-8D55-01CF6A99025B";
paths = (
{
closed = 1;
nodes = (
"202 288 OFFCURVE",
"251 334 OFFCURVE",
"251 393 CURVE",
"251 450 OFFCURVE",
"202 496 OFFCURVE",
"145 496 CURVE SMOOTH",
"88 496 OFFCURVE",
"39 450 OFFCURVE",
"39 393 CURVE SMOOTH",
"39 334 OFFCURVE",
"86 288 OFFCURVE",
"145 288 CURVE SMOOTH"
);
},
{
closed = 1;
nodes = (
"186 -46 LINE",
"237 183 LINE",
"67 182 LINE",
"48 -46 LINE"
);
}
);
width = 282;
}
);
unicode = 003B;
},
{
color = 1;
glyphname = slash;
lastChange = "2016-10-17 05:23:45 +0000";
layers = (
{
layerId = "262880E7-CFE1-4BDA-902E-E24798F3240A";
paths = (
{
closed = 1;
nodes = (
"95 0 LINE",
"233 700 LINE",
"211 700 LINE",
"73 0 LINE"
);
}
);
width = 306;
},
{
layerId = "4F25946F-63AC-42D6-8D55-01CF6A99025B";
paths = (
{
closed = 1;
nodes = (
"198 0 LINE",
"336 700 LINE",
"134 700 LINE",
"-4 0 LINE"
);
}
);
width = 332;
}
);
unicode = 002F;
},
{
color = 1;
glyphname = quotesingle.alt;
lastChange = "2016-10-17 05:23:47 +0000";
layers = (
{
layerId = "262880E7-CFE1-4BDA-902E-E24798F3240A";
paths = (
{
closed = 1;
nodes = (
"209 699 LINE",
"187 699 LINE",
"187 507 LINE",
"209 507 LINE"
);
}
);
width = 396;
},
{
layerId = "4F25946F-63AC-42D6-8D55-01CF6A99025B";
paths = (
{
closed = 1;
nodes = (
"248 603 LINE",
"64 603 LINE",
"55 344 LINE",
"186 344 LINE"
);
}
);
width = 278;
}
);
},
{
color = 1;
glyphname = emdash;
lastChange = "2016-10-17 05:23:45 +0000";
layers = (
{
layerId = "262880E7-CFE1-4BDA-902E-E24798F3240A";
paths = (
{
closed = 1;
nodes = (
"542 251 LINE",
"542 272 LINE",
"134 272 LINE",
"134 251 LINE"
);
}
);
width = 676;
},
{
layerId = "4F25946F-63AC-42D6-8D55-01CF6A99025B";
paths = (
{
closed = 1;
nodes = (
"642 180 LINE",
"642 368 LINE",
"42 368 LINE",
"42 180 LINE"
);
}
);
width = 684;
}
);
unicode = 2014;
},
{
color = 1;
glyphname = hyphen;
lastChange = "2016-10-17 05:23:46 +0000";
layers = (
{
layerId = "4F25946F-63AC-42D6-8D55-01CF6A99025B";
paths = (
{
closed = 1;
nodes = (
"322 180 LINE",
"322 368 LINE",
"42 368 LINE",
"42 180 LINE"
);
}
);
width = 364;
},
{
layerId = "262880E7-CFE1-4BDA-902E-E24798F3240A";
paths = (
{
closed = 1;
nodes = (
"392 251 LINE",
"392 272 LINE",
"134 272 LINE",
"134 251 LINE"
);
}
);
width = 526;
}
);
unicode = 002D;
},
{
color = 1;
glyphname = dollar;
lastChange = "2016-10-17 05:23:47 +0000";
layers = (
{
layerId = "4F25946F-63AC-42D6-8D55-01CF6A99025B";
paths = (
{
closed = 1;
nodes = (
"448 -10 OFFCURVE",
"542 74 OFFCURVE",
"542 200 CURVE SMOOTH",
"542 312 OFFCURVE",
"468 381 OFFCURVE",
"355 425 CURVE SMOOTH",
"309 443 OFFCURVE",
"256 456 OFFCURVE",
"256 489 CURVE SMOOTH",
"256 503 OFFCURVE",
"266 518 OFFCURVE",
"290 518 CURVE SMOOTH",
"316 518 OFFCURVE",
"331 501 OFFCURVE",
"331 479 CURVE SMOOTH",
"331 464 LINE",
"543 474 LINE",
"543 479 LINE SMOOTH",
"543 617 OFFCURVE",
"436 710 OFFCURVE",
"284 710 CURVE SMOOTH",
"137 710 OFFCURVE",
"41 624 OFFCURVE",
"41 498 CURVE SMOOTH",
"41 389 OFFCURVE",
"114 318 OFFCURVE",
"228 275 CURVE SMOOTH",
"270 259 OFFCURVE",
"326 245 OFFCURVE",
"326 214 CURVE SMOOTH",
"326 201 OFFCURVE",
"317 182 OFFCURVE",
"291 182 CURVE SMOOTH",
"267 182 OFFCURVE",
"252 199 OFFCURVE",
"252 231 CURVE SMOOTH",
"252 236 LINE",
"29 226 LINE",
"29 221 LINE SMOOTH",
"29 83 OFFCURVE",
"135 -10 OFFCURVE",
"295 -10 CURVE SMOOTH"
);
},
{
closed = 1;
nodes = (
"366 -53 LINE",
"366 93 LINE",
"245 93 LINE",
"245 -53 LINE"
);
},
{
closed = 1;
nodes = (
"363 599 LINE",
"363 745 LINE",
"242 745 LINE",
"242 599 LINE"
);
}
);
width = 576;
},
{
layerId = "262880E7-CFE1-4BDA-902E-E24798F3240A";
paths = (
{
closed = 1;
nodes = (
"422 -9 OFFCURVE",
"486 50 OFFCURVE",
"486 149 CURVE SMOOTH",
"486 255 OFFCURVE",
"413 307 OFFCURVE",
"331 361 CURVE SMOOTH",
"250 414 OFFCURVE",
"186 459 OFFCURVE",
"186 552 CURVE SMOOTH",
"186 636 OFFCURVE",
"238 690 OFFCURVE",
"322 690 CURVE SMOOTH",
"406 690 OFFCURVE",
"458 637 OFFCURVE",
"458 550 CURVE SMOOTH",
"458 500 LINE",
"480 500 LINE",
"480 550 LINE SMOOTH",
"480 650 OFFCURVE",
"420 709 OFFCURVE",
"322 709 CURVE SMOOTH",
"224 709 OFFCURVE",
"164 649 OFFCURVE",
"164 553 CURVE SMOOTH",
"164 446 OFFCURVE",
"239 394 OFFCURVE",
"317 342 CURVE SMOOTH",
"394 291 OFFCURVE",
"464 244 OFFCURVE",
"464 148 CURVE SMOOTH",
"464 63 OFFCURVE",
"408 11 OFFCURVE",
"326 11 CURVE SMOOTH",
"238 11 OFFCURVE",
"192 64 OFFCURVE",
"192 150 CURVE SMOOTH",
"192 200 LINE",
"170 200 LINE",
"170 150 LINE SMOOTH",
"170 50 OFFCURVE",
"225 -9 OFFCURVE",
"327 -9 CURVE SMOOTH"
);
},
{
closed = 1;
nodes = (
"332 -88 LINE",
"332 2 LINE",
"309 2 LINE",
"309 -88 LINE"
);
},
{
closed = 1;
nodes = (
"332 702 LINE",
"332 792 LINE",
"309 792 LINE",
"309 702 LINE"
);
}
);
width = 650;
},
{
associatedMasterId = "4F25946F-63AC-42D6-8D55-01CF6A99025B";
layerId = "E869EA52-1DFA-43F8-82AD-AF9382669512";
name = "DemiBold{119,100}";
paths = (
{
closed = 1;
nodes = (
"387 -10 OFFCURVE",
"467 63 OFFCURVE",
"467 176 CURVE SMOOTH",
"467 286 OFFCURVE",
"394 347 OFFCURVE",
"295 395 CURVE SMOOTH",
"233 430 OFFCURVE",
"175 457 OFFCURVE",
"175 518 CURVE SMOOTH",
"175 565 OFFCURVE",
"204 598 OFFCURVE",
"256 598 CURVE SMOOTH",
"309 598 OFFCURVE",
"341 564 OFFCURVE",
"341 512 CURVE SMOOTH",
"341 481 LINE",
"465 486 LINE",
"465 512 LINE SMOOTH",
"465 632 OFFCURVE",
"380 710 OFFCURVE",
"253 710 CURVE SMOOTH",
"129 710 OFFCURVE",
"49 636 OFFCURVE",
"49 524 CURVE SMOOTH",
"49 415 OFFCURVE",
"123 353 OFFCURVE",
"221 306 CURVE SMOOTH",
"279 274 OFFCURVE",
"341 245 OFFCURVE",
"341 183 CURVE SMOOTH",
"341 137 OFFCURVE",
"311 103 OFFCURVE",
"259 103 CURVE SMOOTH",
"205 103 OFFCURVE",
"176 136 OFFCURVE",
"176 193 CURVE SMOOTH",
"176 219 LINE",
"46 214 LINE",
"46 188 LINE SMOOTH",
"46 68 OFFCURVE",
"128 -10 OFFCURVE",
"261 -10 CURVE SMOOTH"
);
},
{
closed = 1;
nodes = (
"306 -80 LINE",
"306 40 LINE",
"203 40 LINE",
"203 -80 LINE"
);
},
{
closed = 1;
nodes = (
"309 652 LINE",
"309 777 LINE",
"205 777 LINE",
"205 652 LINE"
);
}
);
width = 513;
}
);
unicode = 0024;
},
{
color = 1;
glyphname = at;
lastChange = "2016-10-17 05:23:46 +0000";
layers = (
{
layerId = "262880E7-CFE1-4BDA-902E-E24798F3240A";
paths = (
{
closed = 1;
nodes = (
"711 -68 OFFCURVE",
"873 92 OFFCURVE",
"873 290 CURVE SMOOTH",
"873 488 OFFCURVE",
"711 648 OFFCURVE",
"512 648 CURVE SMOOTH",
"313 648 OFFCURVE",
"151 488 OFFCURVE",
"151 290 CURVE SMOOTH",
"151 92 OFFCURVE",
"313 -68 OFFCURVE",
"512 -68 CURVE SMOOTH"
);
},
{
closed = 1;
nodes = (
"325 -50 OFFCURVE",
"173 102 OFFCURVE",
"173 290 CURVE SMOOTH",
"173 478 OFFCURVE",
"325 630 OFFCURVE",
"512 630 CURVE SMOOTH",
"699 630 OFFCURVE",
"851 478 OFFCURVE",
"851 290 CURVE SMOOTH",
"851 102 OFFCURVE",
"699 -50 OFFCURVE",
"512 -50 CURVE SMOOTH"
);
},
{
closed = 1;
nodes = (
"578 105 OFFCURVE",
"622 152 OFFCURVE",
"622 227 CURVE SMOOTH",
"622 369 LINE SMOOTH",
"622 444 OFFCURVE",
"578 491 OFFCURVE",
"506 491 CURVE SMOOTH",
"433 491 OFFCURVE",
"385 445 OFFCURVE",
"385 370 CURVE SMOOTH",
"385 226 LINE SMOOTH",
"385 151 OFFCURVE",
"433 105 OFFCURVE",
"506 105 CURVE SMOOTH"
);
},
{
closed = 1;
nodes = (
"441 121 OFFCURVE",
"402 161 OFFCURVE",
"402 226 CURVE SMOOTH",
"402 370 LINE SMOOTH",
"402 435 OFFCURVE",
"443 475 OFFCURVE",
"506 475 CURVE SMOOTH",
"570 475 OFFCURVE",
"611 435 OFFCURVE",
"611 370 CURVE SMOOTH",
"611 226 LINE SMOOTH",
"611 161 OFFCURVE",
"572 121 OFFCURVE",
"506 121 CURVE SMOOTH"
);
},
{
closed = 1;
nodes = (
"627 110 LINE",
"627 486 LINE",
"611 486 LINE",
"611 110 LINE"
);
}
);
width = 1024;
},
{
layerId = "4F25946F-63AC-42D6-8D55-01CF6A99025B";
paths = (
{
closed = 1;
nodes = (
"584 -53 OFFCURVE",
"746 108 OFFCURVE",
"746 306 CURVE SMOOTH",
"746 504 OFFCURVE",
"584 665 OFFCURVE",
"386 665 CURVE SMOOTH",
"188 665 OFFCURVE",
"26 504 OFFCURVE",
"26 306 CURVE SMOOTH",
"26 108 OFFCURVE",
"188 -53 OFFCURVE",
"386 -53 CURVE SMOOTH"
);
},
{
closed = 1;
nodes = (
"251 69 OFFCURVE",
"151 170 OFFCURVE",
"151 306 CURVE SMOOTH",
"151 442 OFFCURVE",
"251 543 OFFCURVE",
"386 543 CURVE SMOOTH",
"521 543 OFFCURVE",
"621 442 OFFCURVE",
"621 306 CURVE SMOOTH",
"621 170 OFFCURVE",
"521 69 OFFCURVE",
"386 69 CURVE SMOOTH"
);
},
{
closed = 1;
nodes = (
"406.919 176.229 OFFCURVE",
"449.816 235.625 OFFCURVE",
"449.816 282.765 CURVE SMOOTH",
"449.816 290.308 LINE SMOOTH",
"449.816 295.493 OFFCURVE",
"442.274 419 OFFCURVE",
"350.351 419 CURVE",
"294.726 419 OFFCURVE",
"261.728 391.659 OFFCURVE",
"261.728 344.99 CURVE SMOOTH",
"261.728 255.424 LINE SMOOTH",
"261.728 212.998 OFFCURVE",
"286.712 176.229 OFFCURVE",
"343.28 176.229 CURVE SMOOTH"
);
},
{
closed = 1;
nodes = (
"367.793 257.781 OFFCURVE",
"359.779 265.323 OFFCURVE",
"359.779 277.108 CURVE SMOOTH",
"359.779 320.477 LINE SMOOTH",
"359.779 332.262 OFFCURVE",
"367.793 339.805 OFFCURVE",
"380.049 339.805 CURVE SMOOTH",
"392.306 339.805 OFFCURVE",
"400.791 332.262 OFFCURVE",
"400.791 320.477 CURVE SMOOTH",
"400.791 277.108 LINE SMOOTH",
"400.791 265.323 OFFCURVE",
"392.306 257.781 OFFCURVE",
"380.049 257.781 CURVE SMOOTH"
);
},
{
closed = 1;
nodes = (
"498.371 180 LINE",
"498.371 415.7 LINE",
"400.791 415.7 LINE",
"400.791 180 LINE"
);
}
);
width = 772;
}
);
unicode = 0040;
},
{
color = 1;
glyphname = copyright;
lastChange = "2016-10-17 05:23:46 +0000";
layers = (
{
layerId = "262880E7-CFE1-4BDA-902E-E24798F3240A";
paths = (
{
closed = 1;
nodes = (
"711 -68 OFFCURVE",
"873 92 OFFCURVE",
"873 290 CURVE SMOOTH",
"873 488 OFFCURVE",
"711 648 OFFCURVE",
"512 648 CURVE SMOOTH",
"313 648 OFFCURVE",
"151 488 OFFCURVE",
"151 290 CURVE SMOOTH",
"151 92 OFFCURVE",
"313 -68 OFFCURVE",
"512 -68 CURVE SMOOTH"
);
},
{
closed = 1;
nodes = (
"325 -50 OFFCURVE",
"173 102 OFFCURVE",
"173 290 CURVE SMOOTH",
"173 478 OFFCURVE",
"325 630 OFFCURVE",
"512 630 CURVE SMOOTH",
"699 630 OFFCURVE",
"851 478 OFFCURVE",
"851 290 CURVE SMOOTH",
"851 102 OFFCURVE",
"699 -50 OFFCURVE",
"512 -50 CURVE SMOOTH"
);
},
{
closed = 1;
nodes = (
"584 103 OFFCURVE",
"630 148 OFFCURVE",
"630 223 CURVE SMOOTH",
"630 225 LINE",
"614 225 LINE",
"614 223 LINE SMOOTH",
"614 158 OFFCURVE",
"575 118 OFFCURVE",
"509 118 CURVE SMOOTH",
"444 118 OFFCURVE",
"405 158 OFFCURVE",
"405 223 CURVE SMOOTH",
"405 367 LINE SMOOTH",
"405 433 OFFCURVE",
"446 472 OFFCURVE",
"509 472 CURVE SMOOTH",
"573 472 OFFCURVE",
"614 433 OFFCURVE",
"614 367 CURVE SMOOTH",
"614 366 LINE",
"630 366 LINE",
"630 367 LINE SMOOTH",
"630 442 OFFCURVE",
"584 487 OFFCURVE",
"509 487 CURVE SMOOTH",
"435 487 OFFCURVE",
"388 442 OFFCURVE",
"388 367 CURVE SMOOTH",
"388 223 LINE SMOOTH",
"388 148 OFFCURVE",
"435 103 OFFCURVE",
"509 103 CURVE SMOOTH"
);
}
);
width = 1024;
},
{
layerId = "4F25946F-63AC-42D6-8D55-01CF6A99025B";
paths = (
{
closed = 1;
nodes = (
"584 -53 OFFCURVE",
"746 108 OFFCURVE",
"746 306 CURVE SMOOTH",
"746 504 OFFCURVE",
"584 665 OFFCURVE",
"386 665 CURVE SMOOTH",
"188 665 OFFCURVE",
"26 504 OFFCURVE",
"26 306 CURVE SMOOTH",
"26 108 OFFCURVE",
"188 -53 OFFCURVE",
"386 -53 CURVE SMOOTH"
);
},
{
closed = 1;
nodes = (
"251 69 OFFCURVE",
"151 170 OFFCURVE",
"151 306 CURVE SMOOTH",
"151 442 OFFCURVE",
"251 543 OFFCURVE",
"386 543 CURVE SMOOTH",
"521 543 OFFCURVE",
"621 442 OFFCURVE",
"621 306 CURVE SMOOTH",
"621 170 OFFCURVE",
"521 69 OFFCURVE",
"386 69 CURVE SMOOTH"
);
},
{
closed = 1;
nodes = (
"458 170 OFFCURVE",
"506 214 OFFCURVE",
"511 289.5 CURVE",
"511 290.5 LINE",
"405.5 290.5 LINE",
"405.5 277 LINE SMOOTH",
"405.5 264.5 OFFCURVE",
"396.5 256.5 OFFCURVE",
"383.5 256.5 CURVE SMOOTH",
"370.5 256.5 OFFCURVE",
"362 264.5 OFFCURVE",
"362 277 CURVE",
"362 323 LINE",
"362 335.5 OFFCURVE",
"370.5 343.5 OFFCURVE",
"383.5 343.5 CURVE SMOOTH",
"396.5 343.5 OFFCURVE",
"405.5 335.5 OFFCURVE",
"405.5 323 CURVE",
"405.5 312.5 LINE",
"511 312.5 LINE",
"511 313.5 LINE",
"510 385.5 OFFCURVE",
"462.5 428 OFFCURVE",
"383 428 CURVE SMOOTH",
"303 428 OFFCURVE",
"256 381.5 OFFCURVE",
"256 302 CURVE SMOOTH",
"256 297.5 LINE SMOOTH",
"256 217 OFFCURVE",
"303 170 OFFCURVE",
"382.5 170 CURVE SMOOTH"
);
}
);
width = 772;
}
);
unicode = 00A9;
},
{
color = 1;
glyphname = registered;
lastChange = "2016-10-17 05:23:46 +0000";
layers = (
{
layerId = "262880E7-CFE1-4BDA-902E-E24798F3240A";
paths = (
{
closed = 1;
nodes = (
"711 -68 OFFCURVE",
"873 92 OFFCURVE",
"873 290 CURVE SMOOTH",
"873 488 OFFCURVE",
"711 648 OFFCURVE",
"512 648 CURVE SMOOTH",
"313 648 OFFCURVE",
"151 488 OFFCURVE",
"151 290 CURVE SMOOTH",
"151 92 OFFCURVE",
"313 -68 OFFCURVE",
"512 -68 CURVE SMOOTH"
);
},
{
closed = 1;
nodes = (
"325 -50 OFFCURVE",
"173 102 OFFCURVE",
"173 290 CURVE SMOOTH",
"173 478 OFFCURVE",
"325 630 OFFCURVE",
"512 630 CURVE SMOOTH",
"699 630 OFFCURVE",
"851 478 OFFCURVE",
"851 290 CURVE SMOOTH",
"851 102 OFFCURVE",
"699 -50 OFFCURVE",
"512 -50 CURVE SMOOTH"
);
},
{
closed = 1;
nodes = (
"451 104 LINE",
"451 488 LINE",
"523 488 LINE SMOOTH",
"579 488 OFFCURVE",
"614 452 OFFCURVE",
"614 393 CURVE SMOOTH",
"614 334 OFFCURVE",
"579 298 OFFCURVE",
"523 298 CURVE SMOOTH",
"448 298 LINE",
"448 286 LINE",
"523 286 LINE SMOOTH",
"586 287 OFFCURVE",
"626 327 OFFCURVE",
"626 393 CURVE SMOOTH",
"626 459 OFFCURVE",
"586 499 OFFCURVE",
"523 499 CURVE SMOOTH",
"438 499 LINE",
"438 104 LINE"
);
},
{
closed = 1;
nodes = (
"600 104 LINE",
"535 296 LINE",
"524 292 LINE",
"587 104 LINE"
);
}
